<?xml version="1.0" standalone="no"?>
<!DOCTYPE svg PUBLIC "-//W3C//DTD SVG 20010904//EN"
 "http://www.w3.org/TR/2001/REC-SVG-20010904/DTD/svg10.dtd">
<svg version="1.0" xmlns="http://www.w3.org/2000/svg"
 width="512.000000pt" height="512.000000pt" viewBox="0 0 512.000000 512.000000"
 preserveAspectRatio="xMidYMid meet">
<metadata>
Created by potrace 1.14, written by Peter Selinger 2001-2017
</metadata>
<g transform="translate(0.000000,512.000000) scale(0.100000,-0.100000)"
fill="#000000" stroke="none">
<path d="M4287 5104 c-1 -1 -31 -4 -67 -8 -142 -12 -209 -30 -346 -93 -33 -15
-62 -26 -66 -25 -5 1 -8 -2 -8 -8 0 -5 -5 -10 -10 -10 -32 0 -140 -101 -168
-157 -26 -51 -52 -144 -52 -185 0 -28 -6 -37 -35 -52 -43 -24 -142 -117 -183
-175 -18 -24 -32 -56 -32 -71 0 -32 28 -49 36 -22 3 9 10 28 15 42 16 44 161
185 222 216 28 15 31 15 56 -5 55 -44 255 -130 335 -145 51 -10 144 -25 181
-31 22 -3 72 -10 110 -16 39 -6 94 -14 123 -18 80 -12 298 -5 373 12 111 25
165 55 250 141 54 54 73 109 67 195 -4 54 -12 80 -34 115 -58 92 -350 251
-499 273 -16 2 -41 7 -55 12 -23 7 -61 10 -173 14 -21 1 -39 1 -40 1z m228
-58 c17 -4 48 -12 70 -18 22 -7 42 -12 45 -13 49 -11 149 -59 243 -115 128
-76 162 -114 172 -194 13 -92 0 -130 -65 -194 -70 -69 -90 -85 -90 -75 0 4 -4
2 -8 -4 -16 -25 -163 -54 -287 -57 -118 -3 -182 2 -320 23 -38 6 -88 13 -110
16 -52 7 -94 14 -125 20 -14 3 -34 7 -45 9 -48 9 -142 40 -162 53 -12 8 -23
13 -25 12 -8 -8 -125 61 -159 93 -39 38 -39 38 -25 73 8 19 13 35 11 35 -8 0
28 83 44 104 59 74 133 122 271 177 95 37 129 46 205 55 28 3 52 8 55 11 7 7
268 -3 305 -11z"/>
<path d="M4132 4730 c-10 -17 -9 -23 8 -40 16 -16 25 -18 40 -10 26 14 29 21
19 48 -11 28 -50 29 -67 2z"/>
<path d="M4315 4700 c-14 -43 44 -67 68 -28 8 12 7 21 -2 32 -19 23 -58 20
-66 -4z"/>
<path d="M4487 4713 c-15 -14 -6 -52 13 -58 31 -10 58 10 53 40 -4 19 -11 25
-32 25 -15 0 -31 -3 -34 -7z"/>
<path d="M2187 4874 c-1 -1 -53 -4 -116 -8 -137 -7 -226 -29 -348 -82 -17 -8
-36 -14 -41 -14 -6 0 -32 -20 -59 -45 -26 -25 -51 -45 -55 -45 -5 0 -8 -9 -8
-20 0 -34 40 -24 84 23 33 34 61 49 142 79 56 20 123 40 150 44 27 3 52 8 57
11 4 2 87 4 185 5 166 0 359 -18 441 -42 17 -5 32 -8 34 -8 7 3 58 -16 96 -35
63 -31 106 -80 161 -182 26 -50 64 -120 84 -157 20 -37 50 -99 66 -137 25 -61
35 -98 55 -201 5 -26 18 -174 18 -200 0 -8 -4 -29 -8 -46 -5 -25 -3 -33 11
-38 51 -20 61 90 28 304 -7 46 -44 179 -54 199 -5 9 -23 45 -40 81 -93 190
-176 328 -222 370 -27 25 -86 58 -143 80 -20 8 -86 21 -200 40 -69 11 -311 29
-318 24z"/>
<path d="M710 4720 c-19 -12 -22 -108 -3 -144 19 -37 31 -46 51 -39 10 4 12
14 7 37 -6 28 -13 86 -14 127 -1 20 -23 30 -41 19z"/>
<path d="M864 4600 c-75 -36 -92 -54 -74 -75 18 -22 37 -19 108 16 67 32 82
50 62 74 -17 20 -26 19 -96 -15z"/>
<path d="M1402 4592 c-17 -9 -32 -19 -32 -24 0 -4 -6 -8 -12 -8 -17 0 -99 -91
-119 -132 -39 -78 -51 -112 -65 -186 -9 -44 -13 -100 -10 -132 5 -55 24 -110
39 -110 4 0 7 -5 7 -12 0 -6 11 -26 25 -44 14 -18 25 -37 25 -43 0 -6 4 -11 9
-11 5 0 12 -9 16 -20 10 -30 106 -124 149 -144 40 -19 57 -24 91 -26 20 -1 20
-1 1 -12 -24 -13 -153 4 -199 27 -37 18 -57 19 -57 3 1 -47 70 -71 205 -72 57
-1 90 4 114 17 19 9 38 17 43 17 5 0 14 5 21 10 7 6 35 25 62 43 28 17 60 41
71 52 23 22 37 33 104 85 204 161 290 363 246 585 -9 44 -17 85 -18 91 -1 6
-10 16 -20 23 -26 16 -33 -6 -19 -66 6 -26 13 -57 16 -68 40 -178 -48 -383
-225 -523 -36 -28 -81 -65 -100 -82 -44 -38 -44 -38 -107 -78 -48 -31 -54 -32
-75 -19 -13 8 -37 15 -55 15 -80 1 -154 60 -237 190 -79 123 -85 139 -81 230
2 45 7 86 10 92 3 5 8 20 10 32 5 25 10 38 44 108 40 83 128 160 182 160 22 0
29 5 29 20 0 11 -3 21 -7 21 -35 6 -53 4 -81 -9z"/>
<path d="M548 4555 c-16 -35 12 -54 79 -55 44 0 54 4 64 22 15 28 -8 47 -51
42 -16 -2 -41 1 -55 6 -22 8 -27 6 -37 -15z"/>
<path d="M777 4476 c-19 -20 -24 -21 -35 -10 -7 8 -16 14 -21 14 -14 0 -56
-47 -76 -84 -16 -29 -17 -37 -6 -50 22 -26 36 -19 82 40 35 45 44 52 51 39 14
-25 87 -67 111 -63 15 2 23 11 25 29 3 22 -3 29 -27 40 -17 8 -31 21 -31 29 0
20 -19 40 -37 40 -8 0 -24 -11 -36 -24z"/>
<path d="M2257 4319 c-17 -23 -14 -70 9 -164 15 -61 71 -187 86 -193 4 -2 8
-8 8 -13 0 -13 94 -109 107 -109 6 0 16 -6 22 -14 29 -34 157 -57 338 -60 70
-1 100 2 110 12 29 30 -2 38 -144 40 -76 1 -149 4 -163 6 -85 13 -182 74 -222
138 -13 21 -26 38 -30 38 -8 0 -64 143 -73 186 -13 61 -13 99 2 109 18 14 6
45 -18 45 -10 0 -24 -9 -32 -21z"/>
<path d="M4125 3888 c-2 -7 -6 -41 -8 -76 -5 -55 -3 -64 16 -77 35 -25 54 3
55 78 0 66 -9 87 -40 87 -10 0 -20 -6 -23 -12z"/>
<path d="M4311 3779 c-80 -47 -85 -52 -76 -79 6 -19 12 -21 41 -17 19 3 59 20
90 37 47 27 55 36 52 57 -5 43 -36 44 -107 2z"/>
<path d="M4042 3705 c-35 -7 -67 -16 -72 -21 -12 -14 7 -54 27 -55 10 -1 27
-2 38 -3 39 -2 119 20 129 37 15 23 -4 52 -35 54 -13 0 -52 -5 -87 -12z"/>
<path d="M4265 3646 c-28 -43 -12 -71 67 -122 50 -32 86 -32 94 1 6 25 -13 55
-35 55 -6 0 -11 4 -11 8 0 5 -11 14 -25 20 -14 6 -25 18 -25 26 0 13 -28 36
-44 36 -3 0 -13 -11 -21 -24z"/>
<path d="M4154 3606 c-27 -34 -30 -40 -40 -94 -7 -34 15 -57 46 -47 13 4 24
21 31 51 6 24 15 47 20 50 16 10 9 49 -11 61 -17 11 -23 9 -46 -21z"/>
<path d="M2819 3608 c-2 -53 -1 -87 5 -168 16 -199 16 -200 40 -200 7 0 21 9
31 20 18 20 69 27 79 12 3 -5 8 -22 10 -39 7 -38 -19 -70 -69 -84 -64 -18 -56
-64 10 -52 63 12 114 72 110 128 -6 77 -36 105 -106 98 -20 -2 -39 0 -42 4 -5
9 -19 162 -21 243 -1 49 -4 55 -24 58 -17 3 -22 -2 -23 -20z"/>
<path d="M1528 3532 c-21 -36 -27 -80 -29 -189 -1 -83 -3 -93 -20 -93 -47 0
-84 -71 -80 -153 3 -52 19 -76 63 -89 21 -6 38 -19 41 -29 3 -11 11 -21 19
-24 7 -3 56 -47 108 -98 114 -110 220 -183 295 -201 6 -2 28 -8 50 -14 126
-35 302 -39 420 -8 180 46 462 232 517 341 19 36 8 75 -21 75 -22 0 -34 -23
-20 -37 14 -14 -67 -101 -144 -156 -92 -66 -194 -126 -201 -120 -3 4 -6 1 -6
-5 0 -7 -9 -12 -19 -12 -11 0 -22 -4 -25 -9 -14 -22 -172 -53 -266 -52 -52 1
-102 3 -110 4 -8 2 -33 7 -55 11 -102 19 -175 50 -260 111 -79 56 -185 159
-185 178 0 9 -12 22 -27 29 -16 7 -29 23 -31 36 -3 18 -10 22 -41 22 -49 0
-60 14 -56 73 3 72 53 111 70 56 8 -24 31 -25 44 -1 7 13 6 26 -3 43 -21 42
-10 279 14 294 5 3 7 12 4 20 -10 25 -31 24 -46 -3z"/>
<path d="M1883 3509 c-13 -4 -23 -6 -23 -2 0 3 -6 0 -13 -6 -8 -6 -17 -8 -20
-4 -4 3 -7 1 -7 -5 0 -7 -7 -12 -15 -12 -8 0 -15 -5 -15 -11 0 -5 -4 -8 -9 -5
-5 3 -12 -2 -15 -11 -4 -9 -2 -20 5 -23 8 -6 7 -9 -2 -13 -9 -4 -8 -6 5 -6 16
-1 17 -3 5 -18 -8 -10 -9 -14 -2 -10 8 5 13 -5 15 -35 2 -27 8 -42 15 -41 7 2
10 -3 7 -11 -7 -18 37 -42 89 -49 34 -4 38 -2 43 22 3 14 7 31 9 38 2 7 -2 18
-9 26 -8 7 -13 25 -13 40 0 14 -8 33 -17 42 -17 17 -22 30 -8 22 4 -3 27 -8
52 -11 41 -5 46 -3 56 19 9 18 9 28 0 39 -17 22 -66 38 -80 26 -7 -5 -16 -6
-22 -1 -5 5 -19 5 -31 0z m47 -189 c0 -5 -5 -10 -11 -10 -5 0 -7 5 -4 10 3 6
8 10 11 10 2 0 4 -4 4 -10z"/>
<path d="M2389 3492 c-29 -19 -79 -69 -80 -79 0 -5 -2 -18 -5 -31 -2 -14 0
-21 6 -17 5 3 7 0 4 -9 -3 -9 3 -19 16 -26 11 -6 18 -15 15 -20 -7 -12 43 -60
62 -60 8 0 11 5 7 13 -6 10 -4 10 7 0 7 -7 17 -13 22 -13 4 0 5 6 1 13 -6 9
-4 9 8 -1 11 -9 18 -10 23 -2 3 5 14 10 24 10 21 0 44 24 48 50 3 18 -31 39
-57 35 -10 -2 -17 5 -17 18 -1 11 -7 25 -14 31 -9 8 -10 7 -4 -4 8 -13 7 -13
-11 0 -29 22 -30 24 -11 17 9 -4 17 -2 17 2 0 5 9 7 20 4 19 -5 23 -1 23 32 0
35 -3 38 -21 22 -15 -14 -19 -15 -19 -2 0 8 5 11 10 8 5 -3 8 0 5 8 -7 20 -51
20 -79 1z m64 -137 c-3 -9 -8 -14 -10 -11 -3 3 -2 9 2 15 9 16 15 13 8 -4z"/>
<path d="M3420 3450 c-12 -22 -13 -100 -2 -117 17 -27 35 5 37 65 2 64 -15 90
-35 52z"/>
<path d="M676 3383 c-6 -18 1 -69 10 -84 2 -5 11 -6 18 -3 13 5 13 54 1 92 -6
18 -23 15 -29 -5z"/>
<path d="M3497 3340 c-75 -14 -76 -56 -1 -45 74 10 116 31 92 46 -15 10 -38
10 -91 -1z"/>
<path d="M3311 3318 c-49 -8 -56 -12 -46 -27 10 -17 120 -14 135 4 7 9 10 18
7 21 -9 9 -50 10 -96 2z"/>
<path d="M859 3289 c-9 -4 -38 -11 -65 -14 -57 -8 -72 -18 -55 -38 9 -11 21
-13 54 -6 82 17 118 32 115 47 -4 18 -28 23 -49 11z"/>
<path d="M3382 3242 c-40 -51 -53 -78 -46 -96 11 -28 29 -17 62 39 18 30 38
55 43 55 6 0 9 7 7 17 -6 29 -37 22 -66 -15z"/>
<path d="M523 3253 c-9 -22 9 -34 46 -32 40 3 91 24 91 39 0 14 -131 8 -137
-7z"/>
<path d="M3464 3247 c-8 -21 65 -109 84 -102 8 3 16 5 18 5 19 0 -27 58 -78
99 -15 11 -19 11 -24 -2z"/>
<path d="M674 3202 c-20 -13 -64 -84 -64 -103 0 -11 6 -19 14 -19 16 0 39 24
30 32 -3 3 11 22 30 43 34 36 39 55 13 55 -7 0 -17 -4 -23 -8z"/>
<path d="M773 3203 c-24 -9 -13 -42 25 -77 39 -38 56 -44 68 -24 4 7 -7 24
-29 42 -21 17 -37 36 -37 43 0 15 -11 22 -27 16z"/>
<path d="M2380 3006 c0 -9 -4 -16 -9 -16 -5 0 -16 -6 -23 -13 -7 -7 -35 -23
-63 -36 -52 -24 -77 -25 -236 -5 -51 6 -72 -13 -42 -38 9 -7 17 -11 17 -10 1
2 39 0 86 -4 146 -14 174 -8 268 56 37 25 51 41 50 55 -4 25 -48 35 -48 11z"/>
<path d="M722 2957 c-22 -26 9 -142 38 -142 17 0 16 42 -2 70 -3 6 -5 24 -3
42 3 34 -16 51 -33 30z"/>
<path d="M4108 2965 c-2 -2 -39 -5 -83 -9 -102 -8 -152 -14 -245 -28 -73 -11
-109 -15 -141 -17 -27 -2 -51 -25 -43 -44 6 -17 54 -25 54 -8 0 5 28 12 63 16
34 4 73 8 87 10 14 2 54 6 90 10 36 4 79 9 95 11 89 13 267 16 297 4 78 -29
119 -54 124 -76 7 -27 0 -87 -17 -147 -15 -52 -17 -57 -23 -82 -3 -11 -12 -47
-21 -80 -9 -33 -19 -71 -21 -85 -3 -14 -8 -34 -11 -45 -4 -11 -8 -24 -9 -30
-1 -5 -7 -37 -14 -70 -7 -33 -14 -67 -15 -75 -2 -8 -4 -15 -5 -15 -1 0 -3 -11
-6 -25 -5 -36 -25 -101 -37 -128 -8 -17 -8 -28 0 -40 17 -29 41 -25 58 7 8 17
13 31 11 31 -3 0 0 15 5 33 5 17 23 95 39 172 33 162 57 261 94 397 14 54 26
123 26 153 0 48 -4 60 -27 81 -27 25 -82 54 -133 69 -22 7 -186 15 -192 10z"/>
<path d="M3081 2936 c-10 -12 -8 -17 11 -29 13 -8 34 -18 48 -22 42 -13 202
-117 246 -160 36 -35 96 -144 95 -172 0 -2 5 -17 10 -35 37 -124 58 -431 38
-548 -8 -41 -27 -119 -36 -140 -4 -8 -7 -17 -8 -20 -7 -29 -32 -90 -56 -140
-16 -33 -29 -62 -29 -65 0 -7 -63 -98 -81 -119 -19 -20 -16 -41 7 -50 18 -7
67 42 103 105 35 59 80 161 98 222 11 37 17 47 24 36 8 -12 10 -12 19 1 5 8
10 11 10 6 0 -5 9 -1 19 8 14 13 21 14 27 5 5 -8 3 -10 -6 -4 -10 6 -12 4 -7
-9 4 -9 3 -15 -2 -11 -12 7 -41 -4 -41 -16 0 -5 6 -9 14 -9 8 0 16 -6 19 -12
3 -10 7 -10 20 1 9 7 15 17 12 21 -3 4 3 14 13 21 15 13 16 12 3 -3 -7 -10
-10 -18 -6 -18 4 0 2 -7 -5 -15 -17 -21 4 -23 100 -11 30 4 72 8 93 8 26 1 36
6 33 14 -6 15 32 10 47 -5 7 -7 15 -4 24 7 14 16 14 16 9 0 -6 -21 4 -23 23
-5 11 10 13 10 7 0 -4 -7 -2 -13 3 -13 6 0 11 6 11 13 0 8 3 9 8 1 4 -6 17
-13 30 -17 19 -4 21 -3 11 9 -10 12 -9 13 4 8 8 -3 18 -12 21 -20 3 -9 10 -12
16 -9 5 3 10 1 10 -5 0 -6 4 -9 9 -6 5 3 11 -1 15 -9 3 -8 12 -15 21 -15 13 0
21 -26 16 -54 -1 -5 4 -13 11 -17 10 -7 10 -9 -2 -9 -13 0 -13 -1 0 -10 10 -6
11 -10 3 -10 -7 0 -13 -5 -13 -11 0 -5 4 -8 9 -4 11 6 6 -34 -5 -44 -4 -3 -4
2 -1 12 11 31 -8 17 -24 -18 -11 -24 -13 -36 -5 -39 6 -2 3 -5 -7 -5 -10 -1
-16 -5 -13 -10 3 -5 -1 -14 -9 -21 -8 -7 -12 -16 -10 -21 3 -4 -2 -12 -11 -17
-21 -11 -11 -31 14 -27 20 3 42 -12 42 -29 0 -6 -4 -5 -9 3 -5 8 -16 16 -25
17 -11 1 -14 -5 -11 -27 2 -16 0 -27 -5 -24 -5 3 -6 13 -3 22 4 10 2 14 -5 9
-6 -3 -14 -1 -18 5 -4 8 -3 9 4 5 7 -4 12 -3 12 3 0 5 -4 12 -9 15 -11 7 -52
-73 -45 -86 3 -5 0 -7 -8 -6 -8 2 -12 -6 -10 -22 1 -19 0 -21 -7 -10 -8 12
-12 9 -20 -12 -5 -14 -15 -29 -21 -33 -5 -3 -8 -11 -5 -16 4 -5 2 -9 -3 -9
-15 0 -72 -91 -65 -103 3 -6 1 -7 -4 -4 -14 9 -37 -19 -28 -33 3 -5 -1 -10 -9
-10 -14 0 -20 -12 -13 -25 1 -2 -8 -12 -20 -20 -13 -9 -23 -22 -23 -29 0 -8
-7 -19 -15 -26 -8 -7 -15 -24 -15 -39 0 -18 -3 -22 -9 -12 -6 9 -11 10 -15 2
-4 -6 -4 -11 1 -11 4 0 1 -5 -7 -10 -8 -5 -15 -14 -15 -19 0 -5 -9 -18 -20
-28 -30 -27 -30 -44 0 -39 14 3 25 1 25 -5 0 -5 -16 -7 -34 -4 -29 3 -34 1
-29 -12 5 -12 3 -14 -7 -8 -10 6 -12 4 -7 -9 4 -9 3 -15 -2 -11 -5 3 -19 -11
-31 -30 -12 -19 -25 -35 -30 -35 -4 0 -13 -13 -20 -30 -7 -16 -16 -27 -21 -24
-5 3 -9 -2 -9 -10 0 -9 -4 -16 -10 -16 -5 0 -10 -7 -10 -15 0 -8 -5 -15 -11
-15 -6 0 -8 -7 -5 -17 4 -10 4 -14 0 -10 -4 3 -24 -19 -46 -49 -21 -31 -52
-68 -69 -84 -23 -20 -27 -29 -17 -34 7 -3 3 -3 -9 0 -15 3 -25 -1 -33 -16 -6
-11 -15 -18 -21 -15 -5 4 -9 1 -9 -4 0 -6 -7 -11 -15 -11 -8 0 -15 -7 -15 -15
0 -8 -6 -14 -12 -13 -7 2 -12 -4 -10 -12 3 -12 1 -12 -9 -3 -9 9 -18 9 -31 2
-16 -9 -17 -13 -6 -27 11 -15 11 -15 -3 -4 -11 8 -24 10 -40 4 -13 -5 -33 -6
-44 -2 -13 4 -24 2 -31 -8 -9 -12 -13 -12 -25 0 -8 7 -29 15 -46 16 -27 3 -32
0 -27 -12 3 -9 1 -16 -5 -16 -6 0 -10 3 -10 8 5 30 -10 36 -40 18 -10 -7 -12
-5 -6 3 5 9 0 12 -16 11 -13 -1 -26 -1 -29 0 -3 1 -16 3 -30 6 -45 7 -115 27
-126 36 -6 4 -20 5 -29 1 -11 -4 -16 -2 -12 3 3 5 -10 14 -29 20 -27 9 -34 8
-34 -2 0 -7 -4 -15 -9 -18 -5 -4 -7 3 -4 14 3 11 1 20 -3 20 -5 1 -26 3 -46 6
-34 5 -36 4 -32 -18 4 -18 2 -16 -10 7 -8 17 -15 23 -15 15 -1 -9 -4 -11 -9
-4 -4 5 -16 10 -27 11 -11 0 -38 4 -60 7 -22 4 -61 8 -87 9 -25 1 -44 5 -42 8
5 8 -79 23 -123 23 -18 -1 -33 3 -33 8 0 5 -5 6 -10 3 -6 -4 -8 -12 -4 -18 3
-7 0 -5 -8 3 -18 20 -39 24 -49 8 -6 -9 -9 -10 -9 -1 0 25 -155 -2 -177 -31
-11 -15 -14 -16 -10 -3 8 21 -6 22 -26 2 -8 -8 -17 -12 -20 -9 -11 11 -69 -27
-63 -42 3 -8 1 -14 -4 -14 -6 0 -10 5 -10 10 0 15 -39 -7 -68 -37 -12 -14 -19
-29 -16 -35 4 -7 2 -8 -5 -4 -6 4 -8 12 -5 18 5 7 2 8 -5 4 -7 -5 -10 -14 -7
-21 2 -7 -3 -12 -12 -11 -10 0 -16 -6 -16 -16 1 -10 -4 -14 -12 -11 -8 3 -14
0 -14 -7 0 -6 -4 -8 -10 -5 -9 6 -12 -1 -9 -22 0 -3 -6 -10 -15 -15 -9 -5 -14
-13 -11 -19 4 -5 0 -9 -7 -9 -8 0 -6 -5 5 -11 9 -5 17 -15 17 -22 0 -8 -3 -8
-9 2 -7 10 -10 10 -16 1 -4 -7 -2 -16 5 -20 7 -4 10 -12 6 -18 -8 -13 30 -60
62 -75 32 -15 67 -16 67 -2 0 16 15 35 28 35 8 0 7 -4 -2 -9 -11 -7 -26 -42
-18 -41 42 4 124 60 110 74 -4 3 1 6 10 6 15 0 22 18 18 43 -1 5 3 6 9 2 6 -3
7 -12 3 -18 -4 -7 1 -6 11 2 13 11 14 16 4 24 -9 6 -7 7 6 3 11 -4 24 0 33 11
8 10 11 12 8 5 -6 -11 -3 -11 14 0 12 7 21 15 21 19 0 5 8 7 50 11 11 1 20 5
20 8 0 10 60 5 60 -5 1 -5 7 4 15 20 8 17 12 20 10 9 -4 -14 0 -24 10 -28 8
-3 15 -1 15 4 0 6 5 10 11 10 5 0 8 -4 5 -8 -2 -4 5 -8 17 -9 12 0 36 -3 52
-7 51 -12 69 -13 84 -2 11 8 13 8 7 -1 -4 -7 -2 -13 3 -13 6 0 12 0 14 0 1 -1
19 -5 39 -9 30 -7 38 -6 41 8 4 14 5 14 6 -1 0 -10 9 -18 19 -19 9 0 28 -2 41
-5 13 -2 42 -5 65 -7 22 -1 46 -5 51 -8 6 -4 20 -5 32 -4 12 1 20 -2 17 -6 -6
-10 53 -22 67 -13 7 4 9 3 5 -4 -7 -12 61 -36 142 -50 37 -7 52 -6 52 2 0 6 5
4 10 -4 9 -13 10 -13 10 0 0 12 2 12 9 1 6 -9 11 -10 15 -2 4 6 13 11 19 11 8
0 8 -3 -1 -9 -9 -5 3 -10 34 -15 37 -5 52 -2 68 11 20 17 20 17 7 0 -11 -14
-11 -17 0 -18 26 -2 44 3 51 14 5 8 8 6 8 -4 0 -14 9 -16 54 -13 29 2 65 8 79
13 14 5 28 7 32 3 4 -4 4 4 0 18 -7 25 -7 25 10 5 12 -14 15 -15 12 -4 -3 9
-1 22 4 30 8 11 9 11 7 -3 -2 -9 1 -18 5 -19 18 -4 94 33 122 58 16 16 33 27
38 25 4 -1 10 5 13 13 4 8 11 15 18 15 6 0 25 12 41 27 16 16 47 43 68 61 21
17 33 32 25 33 -7 0 -2 5 11 10 15 6 21 14 17 25 -3 8 -2 13 3 10 5 -3 16 5
25 19 9 14 13 25 9 25 -5 0 0 5 11 11 15 9 16 13 5 20 -11 7 -11 9 2 9 17 0
34 26 30 47 -1 8 4 10 14 7 9 -4 17 1 21 12 4 11 21 34 38 53 17 19 24 31 16
27 -8 -4 -3 2 13 14 15 12 27 28 27 36 0 8 5 14 10 14 6 0 10 7 10 15 0 8 5
15 11 15 6 0 8 7 5 16 -3 8 -2 12 4 9 6 -3 10 -3 11 2 2 24 8 46 15 51 4 4 4
-1 1 -10 -4 -10 -2 -18 4 -18 5 0 12 13 15 30 4 16 9 28 13 27 3 -1 7 2 8 7 0
5 8 13 17 18 9 5 13 15 9 26 -3 9 -2 14 2 10 5 -5 29 22 53 60 25 37 50 70 56
74 8 5 7 8 -1 8 -7 0 -13 5 -13 11 0 5 4 8 8 5 13 -8 33 10 35 32 0 11 4 19 8
16 4 -2 15 8 24 22 12 18 13 24 4 19 -8 -4 -4 2 7 12 12 10 20 26 19 35 -2 12
2 15 13 11 10 -4 14 -3 10 1 -3 4 3 19 15 33 12 13 22 28 22 31 1 8 57 98 80
126 10 14 11 22 4 27 -7 4 -5 8 5 12 8 3 27 29 41 57 21 41 24 55 14 66 -10
12 -9 13 4 9 8 -4 18 -1 23 6 5 8 3 10 -7 4 -12 -7 -12 -6 -1 7 6 8 14 37 17
63 3 38 0 51 -13 62 -13 10 -13 12 -2 8 11 -4 16 1 17 15 1 13 -2 18 -10 13
-9 -5 -9 -3 0 8 9 11 10 25 3 49 -5 18 -7 37 -4 41 3 5 -2 12 -10 15 -9 3 -13
11 -9 17 3 5 -2 16 -12 24 -11 7 -16 13 -12 13 4 0 -5 13 -19 29 -16 19 -32
27 -42 24 -9 -4 -13 -2 -9 4 10 16 -107 89 -152 96 -11 2 -24 6 -27 10 -14 14
-26 7 -14 -8 16 -20 6 -19 -14 1 -19 19 -93 33 -82 16 4 -7 3 -12 -2 -12 -6 0
-13 7 -16 16 -3 8 -11 12 -17 8 -6 -3 -50 -6 -97 -6 -91 -1 -115 -5 -107 -18
3 -5 1 -12 -5 -15 -6 -4 -9 -1 -8 7 3 13 -47 20 -66 10 -5 -3 -21 -6 -35 -7
-14 0 -36 -4 -49 -9 -20 -7 -21 -5 -14 16 13 38 5 252 -13 368 -33 208 -78
323 -155 394 -34 31 -121 92 -175 122 -11 6 -36 20 -56 31 -51 30 -93 37 -108
19z m749 -936 c0 -5 -4 -10 -10 -10 -5 0 -10 5 -10 10 0 6 5 10 10 10 6 0 10
-4 10 -10z m70 6 c0 -2 -7 -9 -15 -16 -13 -11 -14 -10 -9 4 5 14 24 23 24 12z
m150 -26 c0 -5 -4 -10 -10 -10 -5 0 -10 5 -10 10 0 6 5 10 10 10 6 0 10 -4 10
-10z m-386 -15 c-4 -8 -11 -12 -16 -9 -6 4 -5 10 3 15 19 12 19 11 13 -6z m64
-10 c-3 -3 -9 2 -12 12 -6 14 -5 15 5 6 7 -7 10 -15 7 -18z m193 7 c-7 -2 -18
1 -23 6 -8 8 -4 9 13 5 13 -4 18 -8 10 -11z m39 -7 c14 -19 14 -19 -2 -6 -10
7 -18 18 -18 24 0 6 1 8 3 6 1 -2 9 -13 17 -24z m206 7 c-10 -2 -22 0 -28 6
-6 6 0 7 19 4 21 -5 23 -7 9 -10z m-478 -12 c-7 -10 -14 -17 -17 -15 -4 4 18
35 25 35 2 0 -1 -9 -8 -20z m196 4 c3 -8 2 -12 -4 -9 -6 3 -10 10 -10 16 0 14
7 11 14 -7z m142 4 c5 -7 3 -8 -6 -3 -9 6 -12 4 -8 -7 4 -8 0 -15 -7 -15 -16
0 -15 18 0 29 13 10 13 10 21 -4z m45 -21 c-10 -9 -11 -8 -5 6 3 10 9 15 12
12 3 -3 0 -11 -7 -18z m-364 -2 c0 -8 -4 -12 -9 -9 -5 3 -6 10 -3 15 9 13 12
11 12 -6z m-67 -11 c0 -8 -19 -13 -24 -6 -3 5 1 9 9 9 8 0 15 -2 15 -3z m524
-9 c11 -8 16 -15 10 -15 -5 0 -18 7 -28 15 -11 8 -16 15 -10 15 5 0 18 -7 28
-15z m96 9 c0 -8 -19 -13 -24 -6 -3 5 1 9 9 9 8 0 15 -2 15 -3z m-580 -8 c0
-2 -7 -7 -16 -10 -8 -3 -12 -2 -9 4 6 10 25 14 25 6z m453 -23 c-3 -7 -6 -13
-8 -13 -2 0 -5 6 -8 13 -3 8 1 14 8 14 7 0 11 -6 8 -14z m105 -8 c-3 -3 -9 2
-12 12 -6 14 -5 15 5 6 7 -7 10 -15 7 -18z m40 -6 c-3 -8 -7 -3 -11 10 -4 17
-3 21 5 13 5 -5 8 -16 6 -23z m-616 -13 c7 4 8 2 4 -4 -11 -17 -36 -3 -28 16
6 16 7 15 10 -1 2 -9 8 -14 14 -11z m226 -11 c-3 -3 -9 2 -12 12 -6 14 -5 15
5 6 7 -7 10 -15 7 -18z m437 5 c-3 -4 0 -11 5 -13 6 -3 5 -4 -1 -3 -7 1 -13
10 -15 19 -1 9 2 15 7 11 5 -3 7 -9 4 -14z m-558 3 c-4 -3 0 -14 9 -24 12 -14
13 -18 2 -25 -7 -4 -10 -4 -6 1 4 4 1 14 -7 22 -18 17 -19 33 -3 33 6 0 8 -3
5 -7z m443 -3 c0 -5 -4 -10 -10 -10 -5 0 -10 5 -10 10 0 6 5 10 10 10 6 0 10
-4 10 -10z m-256 -16 c3 -8 2 -13 -3 -9 -5 3 -11 0 -13 -7 -3 -7 -7 -5 -11 6
-4 10 -3 15 3 11 6 -3 10 -1 10 4 0 16 7 13 14 -5z m60 4 c4 3 4 -1 0 -11 -3
-9 -11 -17 -17 -17 -6 0 -7 3 -4 7 4 3 -1 12 -11 20 -15 13 -15 13 4 4 12 -6
24 -7 28 -3z m253 -10 c-3 -8 -6 -5 -6 6 -1 11 2 17 5 13 3 -3 4 -12 1 -19z
m-626 -5 c13 -17 13 -17 -6 -3 -11 8 -22 16 -24 17 -2 2 0 3 6 3 6 0 17 -8 24
-17z m189 13 c0 -2 -7 -7 -16 -10 -8 -3 -12 -2 -9 4 6 10 25 14 25 6z m417
-16 c1 -11 -2 -20 -7 -20 -6 0 -7 17 -1 38 3 8 7 -1 8 -18z m59 8 c5 -7 3 -8
-6 -3 -10 6 -12 4 -6 -11 5 -14 4 -16 -5 -7 -6 6 -8 16 -5 22 9 14 13 14 22
-1z m-401 -8 c3 -6 -1 -7 -9 -4 -18 7 -21 14 -7 14 6 0 13 -4 16 -10z m-178
-7 c-4 -3 -1 -13 6 -22 11 -14 10 -14 -5 -2 -21 15 -23 31 -6 31 6 0 8 -3 5
-7z m98 -3 c-6 -10 8 -14 35 -10 8 1 13 0 10 -2 -3 -2 -14 -10 -24 -18 -11 -8
-17 -10 -13 -4 4 7 0 15 -9 18 -13 5 -12 26 2 26 3 0 2 -4 -1 -10z m217 -12
c-14 -14 -44 -20 -36 -7 3 5 10 7 15 4 5 -4 12 1 15 10 4 9 9 13 12 10 3 -3 0
-11 -6 -17z m-59 -1 c4 3 7 1 7 -5 0 -17 -16 -15 -31 6 -12 15 -12 16 2 5 9
-7 19 -10 22 -6z m107 -29 c0 -5 -5 -8 -11 -8 -5 0 -8 4 -4 9 3 5 1 12 -5 16
-5 3 -10 11 -10 18 0 12 29 -23 30 -35z m-383 17 c5 -4 2 -5 -6 0 -11 6 -13 4
-8 -8 9 -23 0 -21 -13 2 -7 15 -7 19 5 17 8 -1 18 -6 22 -11z m227 3 c-3 -4
-9 -8 -15 -8 -5 0 -9 4 -9 8 0 5 7 9 15 9 8 0 12 -4 9 -9z m415 9 c-2 -2 -11
-8 -20 -15 -12 -9 -16 -9 -16 1 0 7 9 14 20 14 11 1 18 1 16 0z m-54 -25 c-3
-3 -11 0 -18 7 -9 10 -8 11 6 5 10 -3 15 -9 12 -12z m-162 -9 c-5 -12 -3 -14
7 -8 9 6 11 4 5 -4 -5 -9 -11 -9 -17 -3 -6 6 -7 15 -4 21 11 17 16 13 9 -6z
m227 -8 c0 -7 -6 -15 -13 -18 -8 -3 -14 1 -14 9 0 7 5 10 10 7 6 -4 8 1 4 11
-4 10 -3 15 3 11 6 -3 10 -12 10 -20z m-593 9 c-3 -3 -12 -4 -19 -1 -8 3 -5 6
6 6 11 1 17 -2 13 -5z m466 -75 c-8 -8 -13 -7 -18 2 -5 8 -4 10 3 5 15 -9 16
6 2 22 -5 7 -2 5 7 -3 12 -11 14 -18 6 -26z m102 21 c3 -6 -1 -7 -9 -4 -18 7
-21 14 -7 14 6 0 13 -4 16 -10z m30 -20 c-27 -12 -43 -12 -25 0 8 5 22 9 30 9
10 0 8 -3 -5 -9z m18 -17 c-7 -2 -13 -9 -13 -14 0 -6 6 -7 13 -3 6 4 8 3 4 -1
-4 -5 -14 -10 -22 -11 -12 -2 -12 2 -5 17 6 10 16 19 23 18 9 0 9 -2 0 -6z
m-112 -26 c-10 -9 -11 -8 -5 6 3 10 9 15 12 12 3 -3 0 -11 -7 -18z m-58 -4
c-5 -12 -3 -14 7 -8 9 5 11 4 6 -4 -6 -9 -11 -9 -22 0 -12 10 -12 14 -2 20 18
12 18 11 11 -8z m52 -21 c-3 -3 -11 0 -18 7 -9 10 -8 11 6 5 10 -3 15 -9 12
-12z m128 -33 c-8 -8 -13 -7 -18 2 -6 8 -4 10 5 4 10 -6 12 -4 6 11 -6 15 -5
17 5 7 9 -10 10 -16 2 -24z m-160 8 c7 3 8 2 4 -2 -14 -16 -36 -14 -29 3 4 10
7 12 10 4 2 -7 9 -9 15 -5z m11 -29 c-5 -8 -1 -9 12 -4 14 5 16 4 7 -5 -13
-13 -37 -3 -28 12 4 5 8 9 11 9 3 0 2 -5 -2 -12z m158 -12 c7 4 8 2 4 -5 -9
-13 -26 -5 -25 12 0 9 2 8 6 -1 2 -6 10 -9 15 -6z m-202 -11 c11 -13 10 -14
-5 -9 -14 6 -16 4 -10 -6 5 -8 4 -11 -3 -6 -6 4 -9 13 -5 21 7 19 8 19 23 0z
m47 -11 c-3 -3 -12 -4 -19 -1 -8 3 -5 6 6 6 11 1 17 -2 13 -5z m129 -16 c4 4
2 -2 -6 -13 -21 -30 -23 -31 -18 -15 3 8 1 24 -4 35 -8 18 -8 19 5 3 8 -10 18
-14 23 -10z m-229 -3 c0 -8 -4 -12 -9 -9 -5 3 -6 10 -3 15 9 13 12 11 12 -6z
m123 1 c0 -3 -4 -8 -10 -11 -5 -3 -10 -1 -10 4 0 6 5 11 10 11 6 0 10 -2 10
-4z m-65 -16 c4 -6 -1 -7 -11 -3 -13 5 -15 3 -9 -7 5 -9 4 -11 -4 -6 -6 4 -9
12 -6 17 8 12 22 12 30 -1z m-45 -25 c5 3 11 1 14 -4 4 -5 -2 -8 -11 -7 -9 2
-18 8 -19 15 -1 6 0 7 3 1 2 -5 9 -8 13 -5z m86 -8 c4 -3 -3 -5 -14 -2 -13 2
-26 -3 -32 -13 -5 -9 -10 -12 -10 -6 0 25 38 40 56 21z m-128 -43 c-3 -14 -5
-12 -10 9 -3 19 -2 25 4 19 6 -6 8 -18 6 -28z m59 -6 c-3 -7 -5 -2 -5 12 0 14
2 19 5 13 2 -7 2 -19 0 -25z m163 28 c0 -2 -7 -7 -16 -10 -8 -3 -12 -2 -9 4 6
10 25 14 25 6z m25 -5 c3 -5 2 -12 -3 -15 -5 -3 -9 1 -9 9 0 17 3 19 12 6z
m-195 -52 c0 -5 -4 -7 -10 -4 -5 3 -10 1 -10 -6 0 -7 -3 -10 -6 -6 -8 7 4 27
17 27 5 0 9 -5 9 -11z m30 -38 c0 -4 -6 -8 -13 -8 -8 0 -14 6 -14 13 0 7 6 10
14 7 7 -3 13 -8 13 -12z m-53 -13 c-3 -8 -6 -5 -6 6 -1 11 2 17 5 13 3 -3 4
-12 1 -19z m-81 -10 c5 -7 3 -8 -6 -3 -10 6 -12 4 -6 -10 5 -15 4 -16 -9 -5
-13 11 -13 15 -3 21 17 11 16 11 24 -3z m54 -13 c-7 -8 -16 -12 -21 -10 -4 3
-12 -3 -18 -12 -6 -10 -11 -13 -11 -7 0 15 25 36 33 27 4 -3 9 2 13 11 4 9 9
15 12 12 3 -3 -1 -12 -8 -21z m185 15 c3 -6 -1 -7 -9 -4 -18 7 -21 14 -7 14 6
0 13 -4 16 -10z m-40 -29 c3 -5 0 -13 -6 -17 -7 -4 -9 -3 -5 4 3 5 0 13 -6 15
-9 4 -10 6 -1 6 6 1 14 -3 18 -8z m-119 -26 c2 -12 -2 -12 -17 -5 -23 13 -25
22 -2 13 12 -5 14 -3 8 8 -5 8 -4 11 0 6 5 -4 10 -14 11 -22z m-82 -1 c3 -8 2
-12 -4 -9 -6 3 -10 10 -10 16 0 14 7 11 14 -7z m209 -9 c-3 -9 -8 -14 -10 -11
-3 3 -2 9 2 15 9 16 15 13 8 -4z m-171 -9 c7 4 8 2 4 -5 -9 -13 -26 -5 -25 12
0 9 2 8 6 -1 2 -6 10 -9 15 -6z m-55 -3 c-4 -3 -1 -13 6 -22 11 -14 10 -14 -5
-2 -21 15 -23 31 -6 31 6 0 8 -3 5 -7z m-34 -30 c-5 -12 -3 -14 7 -8 8 5 11 4
6 -3 -4 -6 -13 -9 -22 -5 -11 4 -12 9 -3 19 15 19 20 18 12 -3z m232 -4 c-4
-5 -12 -9 -18 -8 -9 0 -8 2 1 6 6 2 9 10 6 15 -4 7 -2 8 5 4 6 -4 9 -12 6 -17z
m-198 -24 c0 -8 -4 -15 -9 -15 -10 0 -11 14 -1 23 9 10 10 9 10 -8z m178 -4
c3 -5 2 -12 -3 -15 -5 -3 -9 1 -9 9 0 17 3 19 12 6z m-25 -5 c0 -2 -7 -7 -16
-10 -8 -3 -12 -2 -9 4 6 10 25 14 25 6z m-183 -12 c-3 -3 -12 -4 -19 -1 -8 3
-5 6 6 6 11 1 17 -2 13 -5z m73 -9 c0 -1 -8 -9 -18 -18 -15 -14 -19 -15 -19
-2 0 8 5 11 10 8 6 -4 8 0 4 10 -4 11 -2 14 9 10 7 -3 14 -6 14 -8z m-89 -13
c-7 -2 -18 1 -23 6 -8 8 -4 9 13 5 13 -4 18 -8 10 -11z m142 -43 c-8 -8 -13
-7 -18 2 -5 8 -4 10 3 5 7 -4 12 -2 12 5 0 7 3 9 7 6 4 -4 2 -12 -4 -18z
m-233 1 c0 -5 -4 -10 -10 -10 -5 0 -10 5 -10 10 0 6 5 10 10 10 6 0 10 -4 10
-10z m115 -11 c5 -5 -5 -4 -23 2 -17 6 -32 13 -32 16 0 7 43 -8 55 -18z m-39
-11 c5 -7 3 -8 -6 -3 -10 6 -12 4 -6 -10 5 -15 4 -16 -9 -5 -13 11 -13 15 -3
21 17 11 16 11 24 -3z m-106 -14 c0 -8 -19 -13 -24 -6 -3 5 1 9 9 9 8 0 15 -2
15 -3z m50 -8 c0 -2 -9 -6 -20 -9 -11 -3 -18 -1 -14 4 5 9 34 13 34 5z m-80
-30 c0 -3 -4 -8 -10 -11 -5 -3 -10 -1 -10 4 0 6 5 11 10 11 6 0 10 -2 10 -4z
m49 -10 c9 -11 9 -16 0 -22 -8 -5 -9 -3 -4 6 6 10 4 12 -8 7 -11 -4 -14 -2
-10 9 6 17 8 17 22 0z m55 5 c3 -5 -1 -11 -9 -14 -9 -4 -12 -1 -8 9 6 16 10
17 17 5z m-124 -37 c0 -8 -19 -13 -24 -6 -3 5 1 9 9 9 8 0 15 -2 15 -3z m53
-14 c10 -12 9 -12 -4 -2 -9 6 -18 9 -21 6 -3 -3 -9 -1 -12 4 -9 15 22 8 37 -8z
m47 12 c0 -5 -7 -9 -15 -9 -8 0 -12 4 -9 9 3 4 9 8 15 8 5 0 9 -4 9 -8z m-84
-30 c-3 -3 2 -10 11 -17 13 -9 13 -14 3 -20 -8 -5 -11 -4 -6 3 3 5 1 12 -6 14
-6 2 -12 12 -14 21 -1 9 2 14 8 11 5 -3 7 -8 4 -12z m57 -13 c-8 -8 -13 -7
-18 2 -5 8 -4 10 3 5 7 -4 12 -2 12 5 0 7 3 9 7 6 4 -4 2 -12 -4 -18z m150 -4
c-3 -9 -8 -14 -10 -11 -3 3 -2 9 2 15 9 16 15 13 8 -4z m-248 -5 c4 -6 -1 -7
-11 -3 -13 5 -15 3 -9 -7 5 -9 4 -11 -4 -6 -6 4 -9 12 -6 17 8 12 22 12 30 -1z
m119 -16 c3 -8 2 -12 -4 -9 -6 3 -10 10 -10 16 0 14 7 11 14 -7z m-94 -15 c0
-5 -4 -8 -9 -4 -6 3 -14 -3 -20 -12 -6 -10 -11 -13 -11 -7 0 12 20 34 32 34 4
0 8 -5 8 -11z m45 1 c-3 -5 -12 -10 -18 -10 -7 0 -6 4 3 10 19 12 23 12 15 0z
m160 0 c3 -5 1 -10 -4 -10 -6 0 -11 5 -11 10 0 6 2 10 4 10 3 0 8 -4 11 -10z
m-28 -25 c0 -8 -4 -12 -9 -9 -5 3 -6 10 -3 15 9 13 12 11 12 -6z m-122 -4 c3
-5 0 -13 -6 -17 -7 -4 -9 -3 -5 4 3 5 0 13 -6 15 -9 4 -10 6 -1 6 6 1 14 -3
18 -8z m-78 -43 c4 -28 -6 -18 -12 12 -2 12 -1 20 2 16 4 -4 8 -16 10 -28z
m-32 -7 c-6 -5 -25 10 -25 20 0 5 6 4 14 -3 8 -7 12 -15 11 -17z m-51 -6 c3
-8 1 -15 -4 -15 -6 0 -10 7 -10 15 0 8 2 15 4 15 2 0 6 -7 10 -15z m96 -19 c0
-2 -7 -7 -16 -10 -8 -3 -12 -2 -9 4 6 10 25 14 25 6z m121 -11 c5 4 6 -1 2
-10 -5 -13 -7 -14 -14 -3 -5 7 -8 18 -8 23 0 6 3 4 6 -3 2 -6 9 -10 14 -7z
m-177 -11 c3 -8 2 -12 -4 -9 -6 3 -10 10 -10 16 0 14 7 11 14 -7z m-31 -21
c-5 -12 -3 -14 7 -8 9 6 11 4 5 -4 -5 -9 -11 -9 -17 -3 -6 6 -7 15 -4 21 11
17 16 13 9 -6z m72 7 c3 -6 -1 -7 -9 -4 -18 7 -21 14 -7 14 6 0 13 -4 16 -10z
m-119 -33 c1 -9 -2 -15 -7 -11 -5 3 -7 9 -4 14 3 4 0 11 -5 13 -6 3 -5 4 1 3
7 -1 13 -10 15 -19z m202 -12 c-3 -3 -9 2 -12 12 -6 14 -5 15 5 6 7 -7 10 -15
7 -18z m-243 -5 c3 -6 -1 -7 -9 -4 -18 7 -21 14 -7 14 6 0 13 -4 16 -10z m92
-12 c-3 -8 -6 -5 -6 6 -1 11 2 17 5 13 3 -3 4 -12 1 -19z m-25 -20 c-8 -8 -9
-4 -5 13 4 13 8 18 11 10 2 -7 -1 -18 -6 -23z m-59 -5 c-5 -12 -3 -14 7 -8 9
5 11 4 6 -4 -6 -9 -11 -9 -22 0 -12 10 -12 14 -2 20 18 12 18 11 11 -8z m194
1 c-3 -3 -12 -4 -19 -1 -8 3 -5 6 6 6 11 1 17 -2 13 -5z m-242 -14 c3 -5 1
-10 -4 -10 -6 0 -11 5 -11 10 0 6 2 10 4 10 3 0 8 -4 11 -10z m240 -41 c-4 -5
-12 -9 -18 -8 -9 0 -8 2 1 6 6 2 9 10 6 15 -4 7 -2 8 5 4 6 -4 9 -12 6 -17z
m-275 -18 c0 -5 -8 -15 -17 -22 -16 -12 -17 -12 -6 2 7 9 10 19 6 22 -3 4 -1
7 5 7 7 0 12 -4 12 -9z m237 2 c-4 -3 -1 -13 6 -22 11 -14 10 -14 -5 -2 -21
15 -23 31 -6 31 6 0 8 -3 5 -7z m-208 -31 c7 -14 6 -19 -4 -19 -7 0 -11 7 -7
15 4 11 1 13 -8 7 -9 -5 -11 -4 -6 3 10 16 14 15 25 -6z m-74 -2 c-3 -5 -1
-10 6 -10 7 0 10 -3 6 -6 -9 -9 -28 6 -22 17 4 5 8 9 11 9 3 0 2 -4 -1 -10z
m249 -6 c5 -14 4 -15 -9 -4 -17 14 -19 20 -6 20 5 0 12 -7 15 -16z m-53 -17
c-8 -8 -14 -7 -23 2 -11 10 -9 11 6 5 15 -6 17 -4 11 6 -6 9 -4 11 4 5 9 -5
10 -10 2 -18z m-156 -27 c3 -6 -1 -7 -9 -4 -18 7 -21 14 -7 14 6 0 13 -4 16
-10z m139 -2 c-5 -8 -2 -9 11 -4 15 5 16 4 5 -9 -10 -12 -15 -13 -21 -3 -7 12
-3 28 7 28 3 0 2 -5 -2 -12z m71 2 c-3 -5 -14 -10 -23 -9 -14 0 -13 2 3 9 27
11 27 11 20 0z m-285 -4 c0 -2 -8 -10 -17 -17 -16 -13 -17 -12 -4 4 13 16 21
21 21 13z m150 -51 c0 -7 -7 -16 -16 -19 -14 -5 -15 -4 -5 8 7 8 9 21 5 27 -4
8 -3 9 4 5 7 -4 12 -13 12 -21z m47 3 c2 -18 0 -20 -7 -8 -12 18 -13 30 -2 30
4 0 9 -10 9 -22z m-202 2 c3 -6 -1 -7 -9 -4 -18 7 -21 14 -7 14 6 0 13 -4 16
-10z m-33 -27 c-9 -3 -10 -9 -3 -17 8 -9 6 -12 -9 -11 -11 1 -23 5 -27 10 -5
4 -2 4 6 0 10 -6 13 -4 9 6 -4 10 1 15 16 16 11 0 15 -1 8 -4z m149 -40 c-12
-20 -14 -14 -5 12 4 9 9 14 11 11 3 -2 0 -13 -6 -23z m69 17 c0 -5 -4 -10 -10
-10 -5 0 -10 5 -10 10 0 6 5 10 10 10 6 0 10 -4 10 -10z m-1734 -22 c4 -7 4
-10 -1 -6 -4 4 -14 0 -22 -10 -13 -15 -13 -15 -3 6 12 25 16 27 26 10z m125
-11 c-8 -8 -14 -7 -23 2 -11 10 -9 11 6 5 15 -6 17 -4 11 6 -6 9 -4 11 4 5 9
-5 10 -10 2 -18z m85 0 c1 -9 -2 -17 -8 -17 -6 0 -8 6 -5 14 3 8 2 17 -4 20
-5 2 -4 3 2 2 7 -1 13 -10 15 -19z m1412 -2 c-3 -3 -9 2 -12 12 -6 14 -5 15 5
6 7 -7 10 -15 7 -18z m65 -5 c3 -11 0 -23 -5 -27 -7 -3 -8 -1 -4 5 4 7 3 12
-3 12 -6 0 -8 7 -5 15 8 20 11 19 17 -5z m-1533 0 c0 -5 -5 -10 -11 -10 -5 0
-7 5 -4 10 3 6 8 10 11 10 2 0 4 -4 4 -10z m1297 -5 c0 -8 -4 -12 -9 -9 -5 3
-6 10 -3 15 9 13 12 11 12 -6z m-1172 -13 c-3 -3 -11 0 -18 7 -9 10 -8 11 6 5
10 -3 15 -9 12 -12z m-325 -2 c0 -5 -4 -10 -10 -10 -5 0 -10 5 -10 10 0 6 5
10 10 10 6 0 10 -4 10 -10z m154 -2 c-5 -7 -2 -9 9 -5 11 4 14 2 10 -9 -4 -11
-9 -12 -19 -3 -12 10 -11 29 2 29 3 0 2 -5 -2 -12z m213 6 c-3 -3 -12 -4 -19
-1 -8 3 -5 6 6 6 11 1 17 -2 13 -5z m62 -16 c-12 -23 -21 -24 -12 -1 5 12 3
14 -7 8 -8 -5 -11 -4 -7 2 3 5 13 10 21 10 11 0 13 -5 5 -19z m1248 15 c-4 -3
-1 -13 6 -22 11 -14 10 -14 -5 -2 -21 15 -23 31 -6 31 6 0 8 -3 5 -7z m73 -18
c-7 -8 -16 -15 -21 -15 -5 0 -1 8 9 18 20 22 31 19 12 -3z m-1623 9 c-3 -3
-12 -4 -19 -1 -8 3 -5 6 6 6 11 1 17 -2 13 -5z m103 -9 c-7 -9 -15 -13 -19
-10 -3 3 1 10 9 15 21 14 24 12 10 -5z m47 9 c-3 -3 -12 -4 -19 -1 -8 3 -5 6
6 6 11 1 17 -2 13 -5z m-354 -24 c3 -11 1 -18 -4 -14 -5 3 -9 12 -9 20 0 20 7
17 13 -6z m53 8 c5 -7 3 -8 -6 -3 -10 6 -12 4 -6 -11 5 -14 4 -16 -5 -7 -6 6
-8 16 -5 22 9 14 13 14 22 -1z m335 -11 c-10 -9 -11 -8 -5 6 3 10 9 15 12 12
3 -3 0 -11 -7 -18z m87 -23 c2 -30 -6 -29 -11 2 -1 10 -7 26 -12 34 -7 12 -6
13 6 3 8 -6 16 -24 17 -39z m96 30 c3 -9 -1 -11 -11 -7 -12 5 -14 3 -8 -8 5
-8 4 -11 0 -6 -5 4 -10 13 -11 21 -2 16 24 17 30 0z m176 10 c0 -8 -19 -13
-24 -6 -3 5 1 9 9 9 8 0 15 -2 15 -3z m972 -12 c-4 -11 -1 -13 8 -7 8 5 11 4
6 -3 -4 -6 -12 -9 -20 -6 -16 6 -17 31 0 31 7 0 10 -7 6 -15z m-1608 -14 c-5
-8 -1 -9 12 -4 14 5 16 4 7 -4 -8 -9 -16 -9 -30 -1 -10 6 -13 11 -5 11 7 0 10
5 6 12 -4 7 -3 8 5 4 6 -4 8 -12 5 -18z m81 13 c3 -5 0 -13 -6 -17 -8 -5 -9
-3 -4 6 6 10 4 12 -9 7 -10 -4 -15 -3 -11 3 8 13 22 13 30 1z m175 5 c0 -2 -7
-7 -16 -10 -8 -3 -12 -2 -9 4 6 10 25 14 25 6z m-93 -21 c0 -8 -4 -12 -9 -9
-4 3 -8 9 -8 15 0 5 4 9 8 9 5 0 9 -7 9 -15z m138 5 c-3 -5 -1 -10 5 -10 6 0
8 -5 4 -11 -4 -8 -9 -7 -15 2 -7 12 -3 29 7 29 3 0 2 -4 -1 -10z m176 -17
c-12 -20 -14 -14 -5 12 4 9 9 14 11 11 3 -2 0 -13 -6 -23z m52 10 c-4 -10 -2
-14 4 -10 5 3 10 0 10 -7 0 -8 -7 -12 -15 -8 -11 4 -13 1 -7 -8 5 -9 4 -11 -4
-6 -6 4 -10 10 -8 14 2 4 7 15 10 25 4 9 9 17 11 17 3 0 2 -7 -1 -17z m-566
-8 c0 -8 -4 -12 -9 -9 -5 3 -6 10 -3 15 9 13 12 11 12 -6z m1679 -2 c-2 -9 -9
-19 -17 -21 -11 -3 -11 -1 1 7 8 6 11 11 7 11 -5 0 -5 5 -2 10 9 15 14 12 11
-7z m41 11 c-3 -3 -12 -4 -19 -1 -8 3 -5 6 6 6 11 1 17 -2 13 -5z m-1920 -19
c0 -8 -4 -12 -9 -9 -4 3 -8 9 -8 15 0 5 4 9 8 9 5 0 9 -7 9 -15z m67 3 c-3 -5
-9 -6 -14 -3 -5 3 -11 1 -15 -5 -3 -5 -11 -10 -18 -10 -6 0 -3 6 7 13 21 15
48 18 40 5z m816 2 c0 -5 -5 -10 -11 -10 -5 0 -7 5 -4 10 3 6 8 10 11 10 2 0
4 -4 4 -10z m84 -1 c3 -3 -6 -5 -19 -5 -14 0 -25 4 -25 8 0 8 36 6 44 -3z
m776 -12 c0 -7 -4 -6 -10 3 -9 14 -14 7 -11 -13 1 -5 -3 -6 -9 -2 -8 5 -8 11
1 21 12 15 29 10 29 -9z m68 9 c-7 -8 -15 -12 -17 -11 -5 6 10 25 20 25 5 0 4
-6 -3 -14z m-803 -14 c-3 -3 -11 0 -18 7 -9 10 -8 11 6 5 10 -3 15 -9 12 -12z
m-888 2 c-3 -3 -12 -4 -19 -1 -8 3 -5 6 6 6 11 1 17 -2 13 -5z m557 -10 c3 -8
2 -12 -4 -9 -6 3 -10 10 -10 16 0 14 7 11 14 -7z m140 4 c-5 -8 -2 -9 11 -4
15 5 16 4 5 -9 -10 -12 -15 -13 -21 -3 -7 12 -3 28 7 28 3 0 2 -5 -2 -12z
m229 -5 c-3 -7 -6 -13 -8 -13 -2 0 -5 6 -8 13 -3 8 1 14 8 14 7 0 11 -6 8 -14z
m-123 3 c0 -2 -7 -9 -15 -16 -13 -11 -14 -10 -9 4 5 14 24 23 24 12z m156 -21
c0 -14 -3 -25 -7 -25 -3 0 -6 11 -6 25 0 14 3 25 6 25 4 0 7 -11 7 -25z
m-1051 5 c3 -6 -1 -7 -9 -4 -18 7 -21 14 -7 14 6 0 13 -4 16 -10z m1125 0 c8
-5 11 -10 5 -10 -5 0 -17 5 -25 10 -8 5 -10 10 -5 10 6 0 17 -5 25 -10z m616
-9 c1 -6 0 -7 -3 -1 -2 5 -9 8 -13 5 -5 -3 -11 -1 -14 4 -4 5 2 8 11 7 9 -2
18 -8 19 -15z m39 9 c-3 -5 -12 -10 -18 -10 -7 0 -6 4 3 10 19 12 23 12 15 0z
m70 0 c3 -5 1 -10 -4 -10 -6 0 -11 5 -11 10 0 6 2 10 4 10 3 0 8 -4 11 -10z
m-997 -25 c-3 -3 -9 2 -12 12 -6 14 -5 15 5 6 7 -7 10 -15 7 -18z m97 16 c3
-5 0 -13 -6 -17 -7 -4 -9 -3 -5 4 3 6 -2 13 -11 15 -16 4 -16 5 -1 6 9 0 19
-3 23 -8z m40 -11 c-3 -5 -2 -10 4 -10 6 0 15 -9 21 -20 9 -16 8 -18 -5 -14
-8 3 -13 10 -10 14 3 4 -2 11 -11 14 -13 5 -12 26 2 26 3 0 2 -4 -1 -10z m117
-22 c-3 -12 -7 -17 -10 -10 -2 7 -8 10 -12 7 -5 -3 -12 -1 -15 5 -4 6 -3 10 2
9 21 -4 34 2 27 13 -4 6 -3 8 4 5 5 -4 8 -17 4 -29z m601 6 c-4 -11 -9 -12
-19 -3 -19 15 -18 20 3 12 12 -5 14 -3 8 7 -5 8 -4 11 3 6 6 -4 9 -13 5 -22z
m110 6 c4 0 5 5 1 12 -4 7 -3 8 5 4 15 -9 7 -22 -18 -29 -15 -3 -18 -1 -14 11
5 11 3 13 -7 7 -9 -6 -11 -4 -5 4 5 9 10 10 18 2 6 -6 15 -11 20 -11z m-1582
-13 c-10 -9 -11 -8 -5 6 3 10 9 15 12 12 3 -3 0 -11 -7 -18z m72 4 c3 -13 1
-18 -9 -14 -7 2 -10 11 -7 19 7 19 10 18 16 -5z m852 1 c-3 -3 -11 0 -18 7 -9
10 -8 11 6 5 10 -3 15 -9 12 -12z m65 -10 c0 -8 -1 -13 -3 -11 -1 2 -9 12 -16
22 -12 15 -12 17 3 11 9 -3 16 -13 16 -22z m-1010 -13 c0 -5 -8 -9 -17 -9 -15
0 -16 2 -3 10 14 9 7 14 -13 11 -5 -1 -6 3 -2 9 7 12 35 -5 35 -21z m180 21
c0 -5 -5 -10 -11 -10 -5 0 -7 5 -4 10 3 6 8 10 11 10 2 0 4 -4 4 -10z m81 -22
c-10 -11 -11 -9 -5 6 6 15 4 17 -6 11 -9 -6 -11 -4 -5 4 5 9 10 10 18 2 8 -8
7 -14 -2 -23z m437 7 c-3 -3 -9 2 -12 12 -6 14 -5 15 5 6 7 -7 10 -15 7 -18z
m462 21 c0 -2 -7 -7 -16 -10 -8 -3 -12 -2 -9 4 6 10 25 14 25 6z m240 0 c0 -2
-7 -7 -16 -10 -8 -3 -12 -2 -9 4 6 10 25 14 25 6z m-1000 -10 c0 -2 -6 -9 -14
-15 -11 -9 -16 -9 -22 0 -4 8 -3 9 4 5 7 -4 12 -2 12 3 0 6 5 11 10 11 6 0 10
-2 10 -4z m-526 -18 c-5 -8 -1 -9 12 -4 14 5 16 4 7 -5 -13 -13 -37 -3 -28 12
4 5 8 9 11 9 3 0 2 -5 -2 -12z m82 -12 c2 -16 -24 -17 -30 0 -3 9 1 11 11 7
12 -5 14 -3 8 8 -5 8 -4 11 0 6 5 -4 10 -13 11 -21z m247 7 c-5 -12 -3 -14 7
-8 9 5 11 4 6 -4 -6 -9 -11 -9 -22 0 -12 10 -12 14 -2 20 18 12 18 11 11 -8z
m214 -10 c1 -24 0 -25 -6 -8 -7 17 -6 35 2 35 2 0 3 -12 4 -27z m663 17 c0 -5
-4 -10 -10 -10 -5 0 -10 5 -10 10 0 6 5 10 10 10 6 0 10 -4 10 -10z m77 -5 c0
-8 -4 -12 -9 -9 -5 3 -6 10 -3 15 9 13 12 11 12 -6z m259 3 c5 -7 3 -8 -6 -3
-10 6 -12 4 -6 -10 5 -15 4 -16 -9 -5 -13 11 -13 15 -3 21 17 11 16 11 24 -3z
m-1095 -21 c-10 -9 -11 -8 -5 6 3 10 9 15 12 12 3 -3 0 -11 -7 -18z m536 1
c-3 -8 -6 -5 -6 6 -1 11 2 17 5 13 3 -3 4 -12 1 -19z m678 12 c-3 -5 -14 -10
-23 -9 -14 0 -13 2 3 9 27 11 27 11 20 0z m-1700 -10 c3 -5 1 -10 -4 -10 -6 0
-11 5 -11 10 0 6 2 10 4 10 3 0 8 -4 11 -10z m396 -13 c-10 -9 -11 -8 -5 6 3
10 9 15 12 12 3 -3 0 -11 -7 -18z m134 13 c3 -6 -1 -7 -9 -4 -18 7 -21 14 -7
14 6 0 13 -4 16 -10z m115 -10 c6 -11 8 -20 6 -20 -3 0 -10 9 -16 20 -6 11 -8
20 -6 20 3 0 10 -9 16 -20z m460 16 c0 -3 -4 -8 -10 -11 -5 -3 -10 -1 -10 4 0
6 5 11 10 11 6 0 10 -2 10 -4z m415 -6 c3 -5 1 -10 -4 -10 -6 0 -11 5 -11 10
0 6 2 10 4 10 3 0 8 -4 11 -10z m114 -4 c9 -10 8 -15 -3 -19 -9 -4 -18 -1 -22
5 -5 7 -2 8 6 3 10 -6 12 -4 7 8 -8 21 -3 22 12 3z m82 -9 c-10 -9 -11 -8 -5
6 3 10 9 15 12 12 3 -3 0 -11 -7 -18z m-1153 -12 c-3 -3 -9 2 -12 12 -6 14 -5
15 5 6 7 -7 10 -15 7 -18z m160 12 c8 -10 6 -13 -11 -14 -12 0 -16 1 -9 4 6 3
10 9 6 14 -8 14 2 11 14 -4z m-943 -7 c-3 -5 -12 -10 -18 -10 -7 0 -6 4 3 10
19 12 23 12 15 0z m188 -10 c-3 -12 -8 -19 -11 -16 -5 6 5 36 12 36 2 0 2 -9
-1 -20z m117 10 c0 -5 -4 -10 -10 -10 -5 0 -10 5 -10 10 0 6 5 10 10 10 6 0
10 -4 10 -10z m710 4 c0 -8 -19 -13 -24 -6 -3 5 1 9 9 9 8 0 15 -2 15 -3z
m693 -11 c-4 -10 -2 -14 5 -9 15 9 26 -14 13 -27 -9 -9 -10 -7 -5 7 5 13 4 17
-4 12 -13 -8 -26 10 -17 24 10 16 15 12 8 -7z m-1586 0 c-4 -3 1 -12 11 -20
16 -12 16 -13 -2 -6 -14 5 -17 3 -11 -7 5 -9 4 -11 -4 -6 -6 4 -8 12 -5 18 5
8 1 9 -12 5 -18 -7 -18 -7 0 8 20 15 35 21 23 8z m1520 -15 c-3 -8 -6 -5 -6 6
-1 11 2 17 5 13 3 -3 4 -12 1 -19z m145 -1 c-7 -8 -9 -17 -5 -20 3 -4 1 -7 -5
-7 -7 0 -12 2 -12 5 0 10 24 44 29 40 2 -3 -1 -11 -7 -18z m-1585 -9 c-3 -8
-6 -5 -6 6 -1 11 2 17 5 13 3 -3 4 -12 1 -19z m648 12 c3 -5 1 -10 -4 -10 -6
0 -11 5 -11 10 0 6 2 10 4 10 3 0 8 -4 11 -10z m52 -5 c0 -8 -4 -12 -9 -9 -4
3 -8 9 -8 15 0 5 4 9 8 9 5 0 9 -7 9 -15z m81 3 c-2 -6 -10 -13 -16 -14 -7 -1
-8 0 -2 3 5 2 8 9 4 14 -3 5 0 9 6 9 7 0 10 -5 8 -12z m852 2 c8 -5 11 -10 5
-10 -5 0 -17 5 -25 10 -8 5 -10 10 -5 10 6 0 17 -5 25 -10z m-895 -10 c-3 -5
-12 -10 -18 -10 -7 0 -6 4 3 10 19 12 23 12 15 0z m100 1 c3 -5 0 -13 -6 -17
-7 -4 -9 -3 -5 4 3 5 0 13 -6 15 -9 4 -10 6 -1 6 6 1 14 -3 18 -8z m60 0 c3
-5 0 -13 -6 -17 -8 -5 -9 -3 -4 6 6 10 4 12 -9 7 -10 -4 -15 -3 -11 3 8 13 22
13 30 1z m476 -14 c-10 -9 -11 -8 -5 6 3 10 9 15 12 12 3 -3 0 -11 -7 -18z
m-1551 -2 c0 -1 -6 -8 -14 -14 -11 -9 -16 -9 -22 0 -5 8 -3 9 6 4 10 -6 12 -4
7 8 -4 11 -2 14 9 10 7 -3 14 -6 14 -8z m1592 -7 c-14 -14 -44 -20 -36 -7 3 5
10 7 15 4 5 -4 12 1 15 10 4 9 9 13 12 10 3 -3 0 -11 -6 -17z m-1537 2 c-3 -5
-12 -10 -18 -10 -7 0 -6 4 3 10 19 12 23 12 15 0z m95 -5 c-14 -17 -30 -20
-30 -4 0 5 4 8 9 4 5 -3 12 -1 16 5 3 5 9 10 12 10 3 0 0 -7 -7 -15z m1374 -9
c-3 -9 -10 -16 -15 -16 -5 0 -4 9 3 20 14 22 21 20 12 -4z m116 -18 c0 -5 -5
-8 -11 -8 -5 0 -8 4 -4 9 3 5 1 12 -5 16 -5 3 -10 11 -10 18 0 12 29 -23 30
-35z m-1441 -2 c-3 -3 -11 5 -18 17 -13 21 -12 21 5 5 10 -10 16 -20 13 -22z
m838 19 c0 -8 -4 -12 -9 -9 -4 3 -8 9 -8 15 0 5 4 9 8 9 5 0 9 -7 9 -15z m74
-2 c12 -16 12 -17 -2 -6 -9 7 -19 10 -22 6 -4 -3 -7 -1 -7 5 0 17 16 15 31 -5z
m49 9 c0 -5 -7 -9 -15 -9 -8 0 -12 4 -9 9 3 4 9 8 15 8 5 0 9 -4 9 -8z m60 -2
c0 -5 -5 -10 -11 -10 -5 0 -7 5 -4 10 3 6 8 10 11 10 2 0 4 -4 4 -10z m139
-24 c-3 -3 -11 5 -18 17 -13 21 -12 21 5 5 10 -10 16 -20 13 -22z m449 20 c-2
-1 -11 -8 -21 -15 -15 -12 -17 -12 -11 4 6 14 4 16 -6 10 -8 -5 -11 -4 -7 3 4
5 16 8 27 5 12 -3 19 -6 18 -7z m-1768 -10 c0 -3 -4 -8 -10 -11 -5 -3 -10 -1
-10 4 0 6 5 11 10 11 6 0 10 -2 10 -4z m114 -8 c-5 -8 -1 -9 12 -4 14 5 16 4
7 -5 -13 -13 -37 -3 -28 12 4 5 8 9 11 9 3 0 2 -5 -2 -12z m1529 -3 c-3 -9 -8
-14 -10 -11 -3 3 -2 9 2 15 9 16 15 13 8 -4z m-1694 -18 c12 -15 12 -17 -3
-11 -9 3 -16 13 -16 22 0 8 1 13 3 11 1 -2 9 -12 16 -22z m91 13 c-13 -9 -13
-11 0 -20 9 -6 10 -10 3 -10 -6 0 -15 5 -18 10 -8 13 3 30 18 30 7 0 6 -4 -3
-10z m1057 -12 c-3 -8 -6 -5 -6 6 -1 11 2 17 5 13 3 -3 4 -12 1 -19z m53 2 c0
-4 -6 -10 -13 -13 -7 -3 -13 3 -13 13 0 10 6 16 13 13 7 -3 13 -9 13 -13z m85
10 c3 -6 -1 -7 -9 -4 -18 7 -21 14 -7 14 6 0 13 -4 16 -10z m154 -13 c12 -15
12 -17 -4 -11 -14 6 -16 4 -10 -6 5 -8 4 -11 -3 -7 -5 4 -8 16 -5 27 3 12 6
19 7 18 1 -2 8 -11 15 -21z m176 5 c-3 -3 -11 0 -18 7 -9 10 -8 11 6 5 10 -3
15 -9 12 -12z m-285 2 c0 -8 -19 -13 -24 -6 -3 5 1 9 9 9 8 0 15 -2 15 -3z
m180 -6 c0 -11 -12 -10 -30 2 -12 7 -10 9 8 7 12 0 22 -5 22 -9z m-1385 -8
c-3 -5 -1 -10 6 -10 7 0 10 -3 6 -6 -9 -9 -28 6 -22 17 4 5 8 9 11 9 3 0 2 -4
-1 -10z m1108 -11 c-8 -8 -13 -7 -18 2 -5 8 -4 10 3 5 7 -4 12 -2 12 5 0 7 3
9 7 6 4 -4 2 -12 -4 -18z m152 11 c3 -6 -1 -7 -9 -4 -18 7 -21 14 -7 14 6 0
13 -4 16 -10z m-1219 -15 c-1 -8 -5 -17 -8 -21 -5 -4 -4 16 1 34 3 9 9 -1 7
-13z m1367 -5 c-3 -12 -8 -19 -11 -16 -5 6 5 36 12 36 2 0 2 -9 -1 -20z
m-1488 0 c-3 -5 -1 -10 6 -10 7 0 10 -3 6 -6 -9 -9 -28 6 -22 17 4 5 8 9 11 9
3 0 2 -4 -1 -10z m1575 -12 c0 -6 -6 -5 -15 2 -8 7 -15 14 -15 16 0 2 7 1 15
-2 8 -4 15 -11 15 -16z m-1606 0 c-3 -4 -11 -5 -19 -1 -21 7 -19 12 4 10 11 0
18 -5 15 -9z m1400 4 c3 -5 -1 -9 -9 -9 -8 0 -15 4 -15 9 0 10 17 10 24 0z"/>
<path d="M859 2855 c-19 -14 -50 -43 -70 -65 -32 -36 -36 -46 -38 -102 -1 -41
3 -70 12 -82 20 -27 36 -13 28 24 -7 37 -2 120 8 120 3 0 32 24 64 54 44 42
54 56 43 65 -9 8 -21 4 -47 -14z"/>
<path d="M679 2771 c-19 -9 -40 -16 -46 -14 -15 5 -34 -22 -27 -40 5 -13 11
-14 37 -4 51 17 92 43 92 57 0 20 -17 21 -56 1z"/>
<path d="M826 2754 c-8 -20 8 -40 57 -71 61 -38 87 -46 94 -27 6 17 5 19 -61
57 -21 12 -38 26 -36 31 2 10 -20 26 -36 26 -7 0 -15 -7 -18 -16z"/>
<path d="M1600 2592 c-162 -133 -253 -270 -276 -412 -12 -77 -16 -139 -16
-287 -1 -159 -2 -172 -19 -176 -26 -7 -24 -23 8 -55 24 -23 38 -57 58 -135 10
-44 64 -133 105 -177 54 -57 82 -74 98 -58 15 15 7 29 -48 86 -78 81 -121 183
-145 344 -8 55 -9 334 -1 398 20 152 83 273 195 374 19 17 43 39 53 49 10 9
21 17 24 17 3 0 12 6 19 13 8 6 21 18 30 25 8 7 13 17 10 23 -12 19 -51 7 -95
-29z"/>
<path d="M3948 2554 c-2 -1 -21 -5 -43 -8 -59 -9 -84 -14 -93 -19 -8 -5 -75
-18 -107 -20 -13 -1 -20 -9 -20 -22 0 -22 26 -26 80 -13 17 4 50 10 74 13 23
3 46 7 50 9 3 2 35 7 71 10 36 4 73 9 83 12 11 3 17 0 17 -9 0 -25 28 -28 44
-5 11 15 12 26 5 40 -9 16 -21 19 -84 17 -41 -1 -76 -3 -77 -5z"/>
<path d="M4020 2428 c-79 -23 -153 -37 -240 -44 -71 -6 -90 -15 -72 -37 18
-21 150 -13 277 17 83 20 123 36 129 53 10 26 -28 31 -94 11z"/>
<path d="M1972 2193 c-11 -21 -22 -106 -28 -221 -7 -123 11 -176 81 -240 55
-51 80 -58 96 -29 7 12 1 21 -23 38 -41 29 -48 36 -75 74 -17 25 -21 47 -22
134 -1 58 3 136 10 174 11 58 10 70 -2 78 -20 13 -27 11 -37 -8z"/>
<path d="M2816 2117 c-12 -9 -16 -19 -11 -27 11 -18 24 -82 31 -152 7 -60 -11
-114 -57 -180 -25 -35 -25 -68 0 -68 22 0 67 68 96 142 13 36 16 62 11 105 -9
83 -20 134 -37 166 -13 24 -17 26 -33 14z"/>
<path d="M1079 1802 c-12 -8 -19 -10 -15 -4 11 19 -5 14 -21 -5 -8 -10 -11
-12 -7 -4 4 9 2 12 -7 9 -8 -3 -13 -14 -11 -25 2 -12 -4 -23 -14 -27 -14 -5
-15 -4 -4 9 7 9 9 19 5 23 -4 4 -10 1 -12 -6 -3 -6 -9 -10 -14 -6 -5 3 -12 -2
-15 -10 -3 -9 -10 -13 -16 -10 -5 3 -12 -3 -15 -15 -3 -11 -9 -18 -14 -16 -4
3 -24 -10 -44 -30 -20 -19 -41 -35 -46 -35 -6 0 -7 -4 -4 -10 3 -5 0 -10 -9
-10 -8 0 -24 -12 -36 -27 -12 -16 -18 -21 -14 -13 4 8 -5 4 -19 -9 -15 -13
-25 -27 -22 -30 2 -4 -1 -13 -7 -21 -8 -12 -9 -12 -4 3 8 24 -11 22 -24 -3 -6
-11 -15 -18 -21 -15 -5 4 -9 2 -9 -4 0 -6 -13 -17 -30 -26 -29 -15 -40 -35
-19 -35 5 0 7 5 3 12 -4 7 -3 8 5 4 17 -11 2 -28 -18 -21 -12 3 -40 -17 -92
-66 -41 -40 -67 -69 -59 -65 8 4 6 0 -5 -9 -11 -9 -19 -21 -18 -26 2 -5 -3 -8
-10 -6 -6 1 -11 -6 -11 -15 1 -11 -4 -14 -14 -11 -9 4 -13 2 -9 -4 4 -6 0 -14
-9 -17 -8 -3 -12 -11 -8 -17 4 -7 3 -9 -3 -6 -11 7 -78 -80 -78 -103 0 -8 -10
-19 -22 -25 -35 -18 -65 -62 -58 -85 4 -12 2 -20 -5 -20 -6 0 -9 4 -5 9 3 5 1
12 -5 16 -5 3 -11 1 -11 -4 -1 -6 -2 -15 -3 -19 0 -5 -13 -20 -28 -33 -31 -29
-39 -53 -19 -54 8 0 16 -7 18 -15 3 -9 1 -11 -4 -5 -11 14 -47 19 -38 6 3 -6
-1 -14 -9 -17 -13 -5 -28 -50 -31 -87 0 -4 -7 -12 -15 -17 -13 -9 -13 -10 0
-10 13 0 13 -1 0 -10 -8 -5 -11 -12 -7 -16 4 -4 2 -13 -4 -21 -9 -10 -8 -17 2
-30 10 -11 10 -14 1 -9 -16 9 -16 -6 0 -23 8 -8 8 -11 2 -8 -7 4 -14 -2 -17
-13 -5 -21 7 -28 18 -10 3 5 12 10 18 10 7 0 4 -5 -6 -11 -9 -6 -14 -15 -11
-21 4 -7 2 -8 -4 -4 -8 5 -12 -1 -12 -14 0 -13 4 -19 11 -14 7 4 10 1 7 -7 -5
-15 25 -84 41 -93 5 -4 21 -2 36 4 17 7 24 7 20 0 -3 -6 -13 -10 -21 -10 -8 0
-14 -5 -14 -11 0 -6 7 -9 15 -5 8 3 14 2 14 -2 -3 -20 4 -29 41 -52 22 -14 40
-28 40 -32 0 -10 27 -10 33 0 2 4 2 1 1 -6 -3 -10 23 -27 46 -30 3 -1 22 -8
42 -16 20 -9 39 -12 43 -7 6 10 30 9 41 -2 4 -4 14 -1 22 6 11 8 14 9 9 0 -5
-8 1 -11 18 -9 15 2 50 -1 78 -6 80 -14 331 -11 382 5 11 4 59 9 107 12 64 3
90 1 100 -9 15 -14 48 -17 48 -4 0 4 5 8 11 8 8 0 8 -5 -1 -15 -7 -8 -16 -12
-21 -9 -5 3 -9 0 -9 -5 0 -6 5 -12 10 -12 20 -3 25 -4 37 -12 18 -12 75 -4 81
11 4 10 7 11 12 1 6 -8 11 -5 19 10 7 12 16 19 22 16 5 -4 9 1 9 9 0 9 5 16
11 16 5 0 8 4 4 9 -3 5 -1 12 4 15 10 7 9 25 -2 44 -5 6 -4 12 2 12 6 0 8 7 5
15 -4 8 -10 12 -15 9 -5 -3 -6 1 -3 9 3 9 -4 22 -18 31 -12 9 -18 16 -13 16 5
0 3 6 -3 12 -10 10 -15 10 -23 -2 -8 -11 -9 -9 -3 10 3 14 3 22 -1 18 -4 -4
-17 4 -30 18 -21 23 -42 34 -31 16 2 -4 -4 -9 -15 -9 -10 -1 -19 3 -19 8 0 6
5 7 10 4 6 -3 10 -1 10 4 0 10 -7 13 -26 10 -4 0 -10 4 -14 11 -4 6 -22 14
-40 16 -18 3 -44 10 -57 15 -15 5 -23 5 -23 -2 0 -6 -6 -6 -18 0 -10 5 -24 6
-32 1 -7 -4 -19 -6 -27 -3 -9 4 -11 0 -7 -13 3 -11 -1 -8 -10 6 -8 14 -15 20
-16 15 0 -6 -23 -10 -55 -8 -30 1 -55 -2 -55 -7 0 -4 -10 -6 -22 -2 -16 4 -19
2 -13 -9 8 -12 6 -12 -8 0 -15 12 -17 11 -18 -5 0 -18 -1 -18 -9 1 -5 11 -9
14 -9 6 -1 -10 -4 -11 -14 -3 -8 7 -18 7 -27 2 -8 -6 -28 -10 -43 -10 -16 0
-26 -4 -22 -10 3 -5 1 -10 -4 -10 -6 0 -11 5 -11 11 0 7 -4 8 -12 2 -7 -5 -30
-8 -50 -7 -21 0 -38 -3 -38 -7 0 -5 5 -8 11 -6 6 1 14 -5 16 -13 4 -13 3 -13
-6 0 -6 8 -11 11 -11 6 0 -5 -6 -4 -12 1 -20 15 -98 15 -116 1 -9 -7 -13 -8
-10 -3 3 6 -9 17 -27 26 -23 11 -32 12 -28 3 5 -14 -22 -13 -34 1 -4 4 -2 5 5
1 7 -4 12 -2 12 7 0 7 -11 20 -25 27 -14 7 -25 17 -25 22 0 5 -4 7 -9 3 -5 -3
-13 -1 -16 5 -4 6 -3 10 2 9 20 -3 25 2 13 16 -10 12 -9 16 5 21 13 5 14 9 4
15 -11 6 -10 9 4 15 9 3 17 10 17 16 0 5 -6 6 -13 2 -8 -5 -8 -2 2 9 7 9 10
17 5 17 -5 0 2 7 14 16 16 11 20 19 13 28 -7 8 -6 17 1 26 8 12 9 12 4 -2 -3
-10 -2 -18 2 -17 10 1 92 107 92 119 0 5 4 10 8 10 5 0 19 14 31 31 13 18 18
28 11 24 -9 -5 -11 -4 -6 3 4 7 14 12 22 12 8 0 14 4 14 8 0 5 10 20 21 33 36
41 51 68 44 79 -4 6 -3 10 2 9 19 -3 33 2 33 12 0 6 -7 9 -15 5 -22 -8 -18 2
6 15 15 8 19 8 15 0 -4 -6 -2 -11 3 -11 6 0 11 4 11 9 0 12 60 69 168 156 17
15 30 31 27 36 -4 5 1 6 9 3 9 -4 18 1 22 10 3 9 12 16 20 16 8 0 14 4 14 10
0 5 -8 7 -17 3 -10 -3 -15 -3 -12 1 4 4 15 8 27 11 11 2 28 10 38 19 11 8 45
36 77 62 31 25 57 51 57 57 0 6 3 8 6 4 7 -7 44 24 39 33 -3 4 7 5 22 2 18 -3
24 -1 19 7 -4 6 -2 12 3 12 6 1 14 2 19 3 20 3 54 46 48 61 -3 9 -2 13 4 10
10 -6 14 5 12 35 -3 46 -29 93 -47 86 -10 -3 -12 0 -8 11 4 11 2 14 -5 9 -7
-4 -12 -2 -12 5 0 7 -3 10 -6 7 -3 -4 -18 -3 -34 2 -20 6 -35 4 -51 -8z m18
-37 c-9 -7 -14 -15 -10 -19 4 -4 -1 -4 -11 0 -15 6 -17 4 -11 -6 6 -9 4 -11
-5 -5 -10 6 -10 11 3 20 9 7 14 15 10 19 -4 4 1 4 11 0 15 -6 17 -4 11 6 -6 9
-4 11 5 5 10 -6 10 -11 -3 -20z m113 -5 c0 -5 -5 -10 -11 -10 -5 0 -7 5 -4 10
3 6 8 10 11 10 2 0 4 -4 4 -10z m-80 -29 c-8 -5 -19 -10 -25 -11 -5 -1 -17 -7
-25 -13 -13 -10 -13 -10 -1 5 7 10 17 16 21 13 5 -3 11 -1 15 5 3 5 12 10 18
10 7 0 6 -4 -3 -9z m-132 -14 c6 -5 12 -14 12 -20 0 -7 -5 -4 -11 6 -6 9 -14
15 -19 12 -5 -3 -11 -1 -14 4 -7 11 13 9 32 -2z m56 5 c2 -4 -4 -8 -14 -8 -10
0 -16 4 -14 8 3 4 9 8 14 8 5 0 11 -4 14 -8z m-84 -32 c8 -15 8 -18 -3 -14 -8
3 -14 11 -14 19 0 20 4 19 17 -5z m-57 -4 c3 -8 0 -17 -7 -19 -10 -4 -12 1 -9
14 6 23 9 24 16 5z m117 -14 c-6 -2 -7 -9 -4 -14 4 -6 2 -8 -4 -5 -5 4 -8 16
-5 28 4 16 8 17 14 7 5 -7 4 -14 -1 -16z m27 6 c-3 -8 -6 -5 -6 6 -1 11 2 17
5 13 3 -3 4 -12 1 -19z m-167 -40 c0 -4 -4 -8 -9 -8 -6 0 -12 4 -15 8 -3 5 1
9 9 9 8 0 15 -4 15 -9z m60 2 c0 -5 -4 -10 -10 -10 -5 0 -10 5 -10 10 0 6 5
10 10 10 6 0 10 -4 10 -10z m50 0 c-8 -5 -19 -10 -25 -10 -5 0 -3 5 5 10 8 5
20 10 25 10 6 0 3 -5 -5 -10z m191 -22 c-10 -11 -11 -9 -5 6 6 15 4 17 -6 11
-9 -6 -11 -4 -5 4 5 9 10 10 18 2 8 -8 7 -14 -2 -23z m-326 -17 c2 -21 -20
-18 -29 4 -3 10 0 12 11 8 12 -5 14 -3 8 8 -4 8 -4 11 0 6 5 -4 9 -16 10 -26z
m267 10 c-8 -4 -13 -12 -12 -17 1 -5 -4 -10 -12 -12 -9 -2 -8 0 2 7 8 6 11 11
7 11 -5 0 -5 5 -2 10 3 6 12 10 18 10 8 0 8 -3 -1 -9z m38 -5 c0 -2 -7 -7 -16
-10 -8 -3 -12 -2 -9 4 6 10 25 14 25 6z m-289 -43 c-12 -20 -14 -14 -5 12 4 9
9 14 11 11 3 -2 0 -13 -6 -23z m-101 -3 c8 -5 11 -10 5 -10 -5 0 -17 5 -25 10
-8 5 -10 10 -5 10 6 0 17 -5 25 -10z m50 0 c0 -5 -4 -10 -10 -10 -5 0 -10 5
-10 10 0 6 5 10 10 10 6 0 10 -4 10 -10z m237 -4 c0 -8 -6 -12 -15 -8 -10 3
-13 1 -8 -6 4 -7 2 -12 -3 -12 -23 0 -4 29 25 40 0 0 1 -6 1 -14z m-147 0 c0
-2 -7 -7 -16 -10 -8 -3 -12 -2 -9 4 6 10 25 14 25 6z m-150 -26 c-13 -9 -13
-11 0 -20 9 -6 10 -10 3 -10 -6 0 -15 5 -18 10 -8 13 3 30 18 30 7 0 6 -4 -3
-10z m55 -20 c4 -6 -1 -7 -11 -3 -13 5 -15 3 -9 -7 5 -9 4 -11 -4 -6 -6 4 -9
12 -6 17 8 12 22 12 30 -1z m183 -19 c11 -7 10 -9 -3 -14 -9 -4 -14 -3 -10 2
3 5 -1 12 -7 14 -7 3 -8 6 -3 6 6 0 16 -3 23 -8z m-328 -5 c0 -3 -4 -8 -10
-11 -5 -3 -10 -1 -10 4 0 6 5 11 10 11 6 0 10 -2 10 -4z m294 -19 c4 4 4 -1 0
-12 -5 -11 -9 -14 -12 -7 -2 7 -8 10 -13 7 -5 -4 -6 2 -2 11 5 13 3 15 -7 9
-9 -6 -11 -4 -5 5 6 10 11 10 20 -3 7 -9 15 -14 19 -10z m-229 4 c3 -5 0 -13
-6 -17 -8 -5 -9 -3 -4 6 6 10 4 12 -9 7 -10 -4 -15 -3 -11 3 8 13 22 13 30 1z
m42 -16 c0 -8 -4 -12 -9 -9 -5 3 -6 10 -3 15 9 13 12 11 12 -6z m-34 -20 c-3
-9 -8 -14 -10 -11 -3 3 -2 9 2 15 9 16 15 13 8 -4z m168 -8 c-10 -9 -11 -8 -5
6 3 10 9 15 12 12 3 -3 0 -11 -7 -18z m-241 9 c0 -2 -7 -7 -16 -10 -8 -3 -12
-2 -9 4 6 10 25 14 25 6z m-76 -18 c-5 -8 -1 -9 12 -4 14 5 16 4 7 -5 -13 -13
-37 -3 -28 12 4 5 8 9 11 9 3 0 2 -5 -2 -12z m-32 -5 c-6 -2 -9 -10 -6 -15 4
-7 2 -8 -5 -4 -13 9 -5 26 12 25 9 0 8 -2 -1 -6z m291 -13 c-3 -12 -8 -19 -11
-16 -5 6 5 36 12 36 2 0 2 -9 -1 -20z m-222 -17 c-12 -20 -14 -14 -5 12 4 9 9
14 11 11 3 -2 0 -13 -6 -23z m69 17 c0 -5 -4 -10 -10 -10 -5 0 -10 5 -10 10 0
6 5 10 10 10 6 0 10 -4 10 -10z m-58 -43 c-7 -8 -9 -17 -5 -20 3 -4 1 -7 -5
-7 -7 0 -12 2 -12 5 0 10 24 44 29 40 2 -3 -1 -11 -7 -18z m-102 3 c0 -5 -4
-10 -10 -10 -5 0 -10 5 -10 10 0 6 5 10 10 10 6 0 10 -4 10 -10z m42 -22 c-8
-8 -9 -4 -5 13 4 13 8 18 11 10 2 -7 -1 -18 -6 -23z m-74 -17 c-7 -9 -14 -18
-16 -21 -3 -3 -1 6 3 19 5 18 4 22 -5 16 -8 -5 -11 -4 -6 3 4 6 13 9 22 5 12
-4 12 -8 2 -22z m265 -1 c-3 -12 -8 -19 -11 -16 -5 6 5 36 12 36 2 0 2 -9 -1
-20z m-293 -25 c0 -5 -5 -3 -10 5 -5 8 -10 20 -10 25 0 6 5 3 10 -5 5 -8 10
-19 10 -25z m80 25 c0 -5 -5 -10 -11 -10 -5 0 -7 5 -4 10 3 6 8 10 11 10 2 0
4 -4 4 -10z m51 -23 c-10 -9 -11 -8 -5 6 3 10 9 15 12 12 3 -3 0 -11 -7 -18z
m184 14 c3 -5 2 -12 -3 -15 -5 -3 -9 1 -9 9 0 17 3 19 12 6z m-205 -21 c6 -11
8 -20 6 -20 -3 0 -10 9 -16 20 -6 11 -8 20 -6 20 3 0 10 -9 16 -20z m138 -7
c-6 -7 -12 -13 -13 -13 -2 0 -5 6 -8 13 -3 7 3 13 14 13 13 0 15 -3 7 -13z
m-280 -18 c-3 -3 -9 2 -12 12 -6 14 -5 15 5 6 7 -7 10 -15 7 -18z m81 11 c9
-11 9 -16 0 -22 -8 -5 -9 -3 -4 6 6 10 4 12 -8 7 -11 -4 -14 -2 -10 9 6 17 8
17 22 0z m17 -34 c-17 -16 -18 -16 -5 5 7 12 15 20 18 17 3 -2 -3 -12 -13 -22z
m-68 -7 c-3 -3 -9 2 -12 12 -6 14 -5 15 5 6 7 -7 10 -15 7 -18z m-22 3 c5 -7
3 -8 -6 -3 -10 6 -12 4 -7 -8 4 -11 2 -14 -9 -10 -11 4 -12 9 -3 19 14 17 16
17 25 2z m54 -28 c-6 -11 -13 -20 -16 -20 -2 0 0 9 6 20 6 11 13 20 16 20 2 0
0 -9 -6 -20z m-104 -3 c8 3 14 -1 14 -8 0 -7 -3 -9 -7 -6 -3 4 -11 3 -17 -3
-8 -6 -12 -2 -13 13 0 12 1 17 4 10 2 -7 11 -9 19 -6z m68 -13 c3 -8 2 -12 -4
-9 -6 3 -10 10 -10 16 0 14 7 11 14 -7z m166 12 c0 -2 -7 -7 -16 -10 -8 -3
-12 -2 -9 4 6 10 25 14 25 6z m-270 -42 c0 12 30 -14 30 -27 0 -6 -7 -2 -15 9
-8 10 -15 15 -15 10 0 -12 -30 14 -30 27 0 6 7 2 15 -9 8 -10 15 -15 15 -10z
m74 0 c9 -24 2 -26 -12 -4 -7 11 -8 20 -3 20 5 0 12 -7 15 -16z m157 -7 c-10
-9 -11 -8 -5 6 3 10 9 15 12 12 3 -3 0 -11 -7 -18z m-293 -37 c-7 -10 -14 -17
-17 -15 -4 4 18 35 25 35 2 0 -1 -9 -8 -20z m25 -5 c-3 -9 -8 -14 -10 -11 -3
3 -2 9 2 15 9 16 15 13 8 -4z m232 5 c-3 -5 -12 -10 -18 -10 -7 0 -6 4 3 10
19 12 23 12 15 0z m-195 -35 c5 3 11 1 14 -4 4 -5 0 -8 -6 -7 -21 3 -38 16
-38 29 0 7 5 4 11 -6 6 -9 14 -15 19 -12z m-50 -9 c-7 -7 -13 -7 -20 0 -6 6
-3 10 10 10 13 0 16 -4 10 -10z m-27 -32 c-3 -8 -8 -12 -11 -10 -3 3 -11 -2
-19 -12 -13 -15 -13 -15 -4 4 6 12 7 24 3 28 -3 4 2 4 12 0 15 -6 17 -4 11 6
-5 8 -4 11 3 6 6 -4 9 -13 5 -22z m267 22 c0 -3 -4 -8 -10 -11 -5 -3 -10 -1
-10 4 0 6 5 11 10 11 6 0 10 -2 10 -4z m-205 -16 c-3 -5 -12 -10 -18 -10 -7 0
-6 4 3 10 19 12 23 12 15 0z m175 -10 c0 -5 -5 -10 -11 -10 -5 0 -7 5 -4 10 3
6 8 10 11 10 2 0 4 -4 4 -10z m-217 -15 c-3 -9 -8 -14 -10 -11 -3 3 -2 9 2 15
9 16 15 13 8 -4z m21 -7 c-5 -8 -2 -9 9 -5 22 8 21 4 -1 -16 -18 -16 -19 -16
-16 5 3 28 3 28 10 28 3 0 2 -5 -2 -12z m166 -18 c0 -5 -4 -10 -10 -10 -5 0
-10 5 -10 10 0 6 5 10 10 10 6 0 10 -4 10 -10z m-257 -25 c-3 -9 -8 -14 -10
-11 -3 3 -2 9 2 15 9 16 15 13 8 -4z m36 -39 c-3 -3 -11 5 -18 17 -13 21 -12
21 5 5 10 -10 16 -20 13 -22z m173 2 c-6 -6 -12 -6 -17 3 -5 8 -4 10 3 5 7 -4
12 0 13 11 0 12 2 13 6 5 3 -8 1 -18 -5 -24z m-218 0 c-5 -8 -1 -9 12 -4 14 5
16 4 7 -5 -13 -13 -37 -3 -28 12 4 5 8 9 11 9 3 0 2 -5 -2 -12z m-81 -13 c-3
-9 -8 -14 -10 -11 -3 3 -2 9 2 15 9 16 15 13 8 -4z m37 -10 c11 -13 10 -14 -5
-9 -14 6 -16 4 -10 -6 5 -8 4 -11 -3 -6 -6 4 -9 13 -5 21 7 19 8 19 23 0z
m234 3 c-3 -4 -9 -8 -15 -8 -5 0 -9 4 -9 8 0 5 7 9 15 9 8 0 12 -4 9 -9z m-31
-11 c3 -8 -1 -14 -8 -14 -7 0 -11 6 -8 14 3 7 6 13 8 13 2 0 5 -6 8 -13z
m-156 -3 c-3 -3 -12 -4 -19 -1 -8 3 -5 6 6 6 11 1 17 -2 13 -5z m23 -18 c0 -3
-4 -8 -10 -11 -5 -3 -10 -1 -10 4 0 6 5 11 10 11 6 0 10 -2 10 -4z m95 -15
c-3 -6 -11 -11 -16 -11 -5 0 -4 6 3 14 14 16 24 13 13 -3z m-160 -1 c3 -6 -1
-7 -9 -4 -18 7 -21 14 -7 14 6 0 13 -4 16 -10z m196 -13 c-10 -9 -11 -8 -5 6
3 10 9 15 12 12 3 -3 0 -11 -7 -18z m-281 -12 c-7 -8 -17 -15 -23 -15 -6 0 -2
7 9 15 25 19 30 19 14 0z m127 1 c0 -8 -8 -13 -19 -11 -10 2 -22 -4 -28 -13
-5 -9 -10 -12 -10 -6 0 6 7 17 15 24 8 7 15 9 15 4 0 -4 5 -3 12 4 15 15 15
15 15 -2z m-73 -4 c3 -5 -1 -9 -9 -9 -8 0 -15 4 -15 9 0 4 4 8 9 8 6 0 12 -4
15 -8z m179 -7 c-3 -9 -8 -14 -10 -11 -3 3 -2 9 2 15 9 16 15 13 8 -4z m-23
-15 c0 -5 -5 -10 -11 -10 -5 0 -7 5 -4 10 3 6 8 10 11 10 2 0 4 -4 4 -10z
m-183 -15 c0 -8 -5 -11 -10 -8 -6 4 -8 -1 -4 -11 4 -10 3 -15 -3 -11 -14 9
-12 32 3 38 6 3 12 6 13 6 0 1 1 -6 1 -14z m30 -7 c-3 -8 -6 -5 -6 6 -1 11 2
17 5 13 3 -3 4 -12 1 -19z m153 -32 c0 -2 -7 -7 -16 -10 -8 -3 -12 -2 -9 4 6
10 25 14 25 6z m-122 -31 c-3 -3 -9 2 -12 12 -6 14 -5 15 5 6 7 -7 10 -15 7
-18z m-21 0 c5 -4 2 -4 -6 0 -11 6 -13 4 -8 -8 4 -11 2 -14 -8 -10 -8 3 -13 9
-10 13 3 5 -1 11 -7 14 -7 2 -3 4 9 2 12 -1 26 -6 30 -11z m-102 -15 c-3 -5
-11 -10 -16 -10 -6 0 -7 5 -4 10 3 6 11 10 16 10 6 0 7 -4 4 -10z m45 -20 c0
-5 -4 -10 -10 -10 -5 0 -10 5 -10 10 0 6 5 10 10 10 6 0 10 -4 10 -10z m36
-29 c-4 -5 0 -11 6 -14 7 -3 3 -4 -8 -4 -21 1 -23 27 -2 27 5 0 7 -4 4 -9z
m-73 -18 c-7 -2 -19 -2 -25 0 -7 3 -2 5 12 5 14 0 19 -2 13 -5z m37 -12 c0 -6
-4 -12 -8 -15 -5 -3 -9 1 -9 9 0 8 4 15 9 15 4 0 8 -4 8 -9z m-37 -18 c-7 -2
-19 -2 -25 0 -7 3 -2 5 12 5 14 0 19 -2 13 -5z m81 -7 c-5 -13 -34 -31 -34
-21 0 5 30 35 35 35 3 0 2 -6 -1 -14z m-54 -21 c7 -8 9 -15 4 -15 -5 0 0 -7
10 -15 11 -8 15 -15 9 -15 -13 0 -39 30 -27 30 5 0 0 7 -10 15 -11 8 -15 15
-9 15 6 0 16 -7 23 -15z m161 -28 c-10 -9 -11 -8 -5 6 3 10 9 15 12 12 3 -3 0
-11 -7 -18z m-181 -1 c0 -3 -4 -8 -10 -11 -5 -3 -10 -1 -10 4 0 6 5 11 10 11
6 0 10 -2 10 -4z m810 -8 c0 -6 -3 -8 -7 -5 -3 4 -14 0 -24 -9 -14 -12 -18
-13 -25 -2 -4 7 -4 10 1 6 4 -4 14 -1 22 7 17 18 33 19 33 3z m113 -3 c-3 -9
-8 -14 -10 -11 -3 3 -2 9 2 15 9 16 15 13 8 -4z m62 -5 c-2 -11 3 -24 13 -30
9 -5 12 -10 6 -10 -21 0 -33 25 -25 55 4 15 9 2 6 -15z m-117 -15 c-3 -3 -9 2
-12 12 -6 14 -5 15 5 6 7 -7 10 -15 7 -18z m157 15 c3 -6 -1 -7 -9 -4 -18 7
-21 14 -7 14 6 0 13 -4 16 -10z m40 0 c-3 -5 -12 -10 -18 -10 -7 0 -6 4 3 10
19 12 23 12 15 0z m-110 -29 c-6 -5 -25 10 -25 20 0 5 6 4 14 -3 8 -7 12 -15
11 -17z m-935 4 c-7 -9 -15 -13 -19 -10 -3 3 1 10 9 15 21 14 24 12 10 -5z
m214 0 c11 -8 16 -15 10 -15 -5 0 -18 7 -28 15 -11 8 -16 15 -10 15 5 0 18 -7
28 -15z m481 -4 c-8 -14 -25 -14 -25 0 0 5 5 7 10 4 6 -3 10 -1 10 6 0 7 3 10
6 6 3 -3 3 -10 -1 -16z m119 3 c5 -14 4 -15 -9 -4 -17 14 -19 20 -6 20 5 0 12
-7 15 -16z m-745 3 c-2 -1 -13 -9 -24 -17 -19 -14 -19 -14 -6 3 7 9 18 17 24
17 6 0 8 -1 6 -3z m212 -14 c13 -16 12 -17 -3 -4 -17 13 -22 21 -14 21 2 0 10
-8 17 -17z m349 7 c0 -5 -4 -10 -10 -10 -5 0 -10 5 -10 10 0 6 5 10 10 10 6 0
10 -4 10 -10z m264 -5 c-4 -8 -11 -15 -16 -15 -6 0 -5 6 2 15 7 8 14 15 16 15
2 0 1 -7 -2 -15z m151 5 c3 -5 1 -10 -4 -10 -6 0 -11 5 -11 10 0 6 2 10 4 10
3 0 8 -4 11 -10z m-562 -15 c-3 -9 -8 -14 -10 -11 -3 3 -2 9 2 15 9 16 15 13
8 -4z m285 -10 c-3 -3 -9 2 -12 12 -6 14 -5 15 5 6 7 -7 10 -15 7 -18z m-801
9 c-3 -3 -1 -18 4 -33 6 -15 6 -22 1 -16 -17 18 -24 55 -11 55 7 0 10 -3 6 -6z
m116 -24 c3 -11 0 -23 -5 -27 -7 -4 -8 -1 -3 7 6 10 4 12 -11 6 -15 -6 -17 -5
-6 5 15 16 16 33 0 23 -7 -4 -8 -3 -4 5 10 15 22 7 29 -19z m117 10 c6 -11 8
-20 6 -20 -3 0 -10 9 -16 20 -6 11 -8 20 -6 20 3 0 10 -9 16 -20z m44 8 c-5
-7 -2 -9 9 -5 11 4 14 2 10 -9 -4 -11 -9 -12 -19 -3 -12 10 -11 29 2 29 3 0 2
-5 -2 -12z m155 -11 c0 -9 -2 -8 -6 1 -2 6 -10 9 -15 6 -7 -4 -8 -2 -4 5 9 13
26 5 25 -12z m117 -5 c-18 -16 -18 -16 -6 6 6 13 14 21 18 18 3 -4 -2 -14 -12
-24z m230 16 c4 -7 3 -8 -4 -4 -7 4 -12 0 -12 -10 0 -10 -3 -15 -6 -11 -7 6 2
37 10 37 3 0 8 -5 12 -12z m104 -23 c0 -5 -5 -3 -10 5 -5 8 -10 20 -10 25 0 6
5 3 10 -5 5 -8 10 -19 10 -25z m173 9 c-4 -11 -9 -12 -19 -3 -19 15 -18 20 3
12 12 -5 14 -3 8 7 -5 8 -4 11 3 6 6 -4 9 -13 5 -22z m63 1 c2 -12 -2 -12 -17
-5 -23 13 -25 22 -2 13 12 -5 14 -3 8 8 -5 8 -4 11 0 6 5 -4 10 -14 11 -22z
m-476 -10 c0 -2 -5 -7 -12 -11 -7 -5 -8 -3 -3 6 6 9 4 12 -7 8 -8 -4 -15 0
-15 7 0 10 5 11 19 4 10 -5 18 -12 18 -14z m60 -18 c-8 -9 -9 -7 -4 7 5 13 4
17 -4 12 -6 -3 -14 -1 -18 5 -4 8 -3 9 4 5 7 -4 12 -1 12 6 0 8 5 5 11 -5 8
-14 8 -22 -1 -30z m300 33 c-13 -9 -13 -11 0 -20 9 -6 10 -10 3 -10 -15 0 -26
17 -18 30 3 6 12 10 18 10 7 0 6 -4 -3 -10z m200 -34 c0 -6 -7 -1 -15 10 -8
10 -15 23 -15 28 0 6 7 1 15 -10 8 -10 15 -23 15 -28z m-826 22 c-4 -5 -8 -7
-12 -4 -3 3 -11 -2 -19 -12 -13 -15 -13 -15 -4 4 5 11 17 21 25 21 8 0 13 -4
10 -9z m214 -13 c-3 -3 -9 2 -12 12 -6 14 -5 15 5 6 7 -7 10 -15 7 -18z m242
10 c11 -13 10 -14 -4 -9 -9 3 -16 10 -16 15 0 13 6 11 20 -6z m-437 -10 c-3
-9 -8 -14 -10 -11 -3 3 -2 9 2 15 9 16 15 13 8 -4z m122 -5 c-3 -5 3 -13 12
-19 10 -6 13 -11 6 -11 -13 0 -26 17 -29 38 -1 6 2 10 7 6 5 -3 7 -9 4 -14z
m-101 -2 c-5 -8 -2 -9 11 -4 15 5 16 4 5 -9 -10 -12 -15 -13 -21 -3 -7 12 -3
28 7 28 3 0 2 -5 -2 -12z m666 3 c0 -5 -8 -15 -17 -22 -16 -12 -17 -12 -6 2 7
9 10 19 6 22 -3 4 -1 7 5 7 7 0 12 -4 12 -9z m74 -3 c-5 -7 -2 -9 9 -5 11 4
14 2 10 -9 -4 -11 -9 -12 -19 -3 -12 10 -11 29 2 29 3 0 2 -5 -2 -12z m-246
-18 c-7 -10 -14 -18 -15 -16 -6 6 9 36 18 36 5 0 4 -9 -3 -20z m-768 0 c0 -5
-4 -10 -10 -10 -5 0 -10 5 -10 10 0 6 5 10 10 10 6 0 10 -4 10 -10z m131 -7
c13 -16 12 -17 -3 -4 -17 13 -22 21 -14 21 2 0 10 -8 17 -17z m212 0 c-5 -12
-3 -14 7 -8 8 5 11 4 6 -3 -4 -6 -13 -9 -22 -5 -11 4 -12 9 -3 19 15 19 20 18
12 -3z m112 -1 c-3 -3 -11 0 -18 7 -9 10 -8 11 6 5 10 -3 15 -9 12 -12z m28 3
c-3 -9 -8 -14 -10 -11 -3 3 -2 9 2 15 9 16 15 13 8 -4z m117 5 c0 -5 -4 -10
-10 -10 -5 0 -10 5 -10 10 0 6 5 10 10 10 6 0 10 -4 10 -10z m66 -8 c1 -7 0
-8 -3 -2 -2 5 -9 8 -14 4 -5 -3 -9 0 -9 6 0 15 23 7 26 -8z m58 6 c-3 -5 -9
-6 -14 -3 -5 3 -13 -3 -19 -12 -6 -10 -11 -13 -11 -7 0 5 5 15 10 20 13 13 41
14 34 2z m147 3 c-8 -5 -16 -17 -17 -26 -1 -9 -5 -20 -8 -23 -9 -8 -2 30 7 46
5 6 14 12 20 12 8 0 7 -4 -2 -9z m109 -6 c0 -1 -7 -8 -15 -15 -13 -11 -14 -10
-9 5 6 14 4 16 -6 10 -8 -5 -11 -4 -6 3 5 9 36 7 36 -3z m-162 -9 c-7 -8 -15
-12 -17 -11 -5 6 10 25 20 25 5 0 4 -6 -3 -14z m277 5 c3 -5 0 -13 -6 -17 -8
-5 -9 -3 -4 6 6 10 4 12 -9 7 -10 -4 -15 -3 -11 3 8 13 22 13 30 1z m-912 -16
c-3 -9 -8 -14 -10 -11 -3 3 -2 9 2 15 9 16 15 13 8 -4z m253 3 c5 -7 3 -8 -6
-3 -9 6 -12 4 -8 -7 4 -8 0 -15 -8 -15 -7 0 -11 4 -8 9 3 4 -1 8 -8 9 -10 0 3
9 29 18 1 1 5 -4 9 -11z m107 -5 c-5 -12 -3 -14 7 -8 9 6 11 4 5 -4 -5 -9 -11
-9 -17 -3 -6 6 -7 15 -4 21 11 17 16 13 9 -6z m183 -11 c-18 -16 -18 -16 -6 6
6 13 14 21 18 18 3 -4 -2 -14 -12 -24z m329 -7 c2 -14 0 -25 -4 -25 -4 0 -8
14 -8 30 0 35 8 32 12 -5z m62 15 c-1 -11 -5 -20 -9 -20 -10 0 -10 4 -2 24 8
22 13 20 11 -4z m-1170 -12 c-3 -8 -6 -5 -6 6 -1 11 2 17 5 13 3 -3 4 -12 1
-19z m433 18 c0 -2 -8 -10 -17 -17 -16 -13 -17 -12 -4 4 13 16 21 21 21 13z
m250 -11 c-7 -9 -15 -13 -19 -10 -3 3 1 10 9 15 21 14 24 12 10 -5z m272 8
c-6 -2 -10 -9 -7 -13 3 -5 0 -12 -6 -16 -8 -4 -9 -3 -5 4 4 7 1 12 -6 12 -9 0
-9 3 2 10 8 5 20 9 25 9 6 0 4 -3 -3 -6z m52 -22 c-2 -3 -12 3 -22 13 -16 17
-16 18 5 5 12 -7 20 -15 17 -18z m-904 9 c8 -5 11 -10 5 -10 -5 0 -17 5 -25
10 -8 5 -10 10 -5 10 6 0 17 -5 25 -10z m207 -12 c1 -10 -3 -18 -9 -18 -6 0
-8 3 -5 7 4 3 2 11 -3 18 -7 8 -6 12 3 12 7 0 14 -9 14 -19z m55 -2 c7 4 8 2
4 -5 -10 -15 -26 -4 -25 17 1 15 2 15 6 -1 2 -9 9 -14 15 -11z m205 2 c-3 -8
-6 -5 -6 6 -1 11 2 17 5 13 3 -3 4 -12 1 -19z m251 -3 c-3 -3 -9 2 -12 12 -6
14 -5 15 5 6 7 -7 10 -15 7 -18z m234 -7 c-8 -8 -9 -4 -5 13 4 13 8 18 11 10
2 -7 -1 -18 -6 -23z m-972 7 c0 -9 -41 -11 -47 -3 -3 7 -1 8 5 4 7 -4 12 -3
12 3 0 6 7 8 15 5 8 -4 15 -7 15 -9z m426 0 c-1 -8 -8 -21 -16 -28 -10 -10
-11 -9 -4 3 5 8 9 18 10 23 3 14 4 17 8 17 2 0 3 -7 2 -15z m120 0 c-1 -8 -5
-17 -8 -21 -5 -4 -4 16 1 34 3 9 9 -1 7 -13z m-371 -13 c-3 -3 -11 0 -18 7 -9
10 -8 11 6 5 10 -3 15 -9 12 -12z m723 -13 c-3 -8 -7 -3 -11 10 -4 17 -3 21 5
13 5 -5 8 -16 6 -23z m-845 0 c-8 -8 -13 -7 -18 2 -5 8 -4 10 3 5 7 -4 12 -2
12 5 0 7 3 9 7 6 4 -4 2 -12 -4 -18z m301 5 c5 -14 4 -15 -9 -4 -17 14 -19 20
-6 20 5 0 12 -7 15 -16z m267 -2 c-7 -2 -18 1 -23 6 -8 8 -4 9 13 5 13 -4 18
-8 10 -11z m207 -7 c-3 -3 -9 2 -12 12 -6 14 -5 15 5 6 7 -7 10 -15 7 -18z
m239 12 c0 -8 -6 -14 -14 -14 -17 0 -17 14 0 20 6 3 12 6 13 6 0 1 1 -5 1 -12z
m-757 -32 c0 -5 -5 -3 -10 5 -5 8 -10 20 -10 25 0 6 5 3 10 -5 5 -8 10 -19 10
-25z m143 4 c-8 -8 -13 -7 -18 2 -6 8 -4 10 5 4 10 -6 12 -4 6 11 -6 15 -5 17
5 7 9 -10 10 -16 2 -24z m46 17 c9 -10 8 -15 -3 -19 -11 -4 -13 -1 -9 10 5 12
3 14 -7 8 -9 -5 -11 -4 -6 3 9 15 11 15 25 -2z m171 -1 c0 -8 -4 -15 -10 -15
-5 0 -7 7 -4 15 4 8 8 15 10 15 2 0 4 -7 4 -15z m124 3 c-3 -5 -10 -6 -15 -3
-5 4 -9 1 -9 -6 0 -7 -3 -10 -6 -6 -9 9 3 24 20 24 8 0 13 -4 10 -9z m151 2
c-3 -5 -1 -10 6 -10 7 0 10 -2 7 -5 -3 -3 -13 -2 -22 1 -14 5 -15 9 -4 15 17
11 20 11 13 -1z m-559 -9 c-4 -5 0 -12 6 -14 8 -3 6 -6 -4 -6 -18 -1 -24 10
-11 22 9 10 15 8 9 -2z m-359 -16 c0 -8 -4 -12 -9 -9 -4 3 -8 9 -8 15 0 5 4 9
8 9 5 0 9 -7 9 -15z m259 3 c4 -7 3 -8 -4 -4 -7 4 -12 2 -12 -5 0 -7 -3 -10
-6 -6 -6 5 3 27 11 27 2 0 7 -5 11 -12z m460 3 c-4 -5 0 -12 6 -14 8 -3 6 -6
-4 -6 -18 -1 -24 10 -11 22 9 10 15 8 9 -2z m356 -18 c-2 -12 -6 -23 -7 -23
-1 0 -5 11 -7 23 -3 14 0 24 7 24 7 0 10 -10 7 -24z m-1015 -5 c-3 -8 -6 -5
-6 6 -1 11 2 17 5 13 3 -3 4 -12 1 -19z m270 0 c-3 -8 -6 -5 -6 6 -1 11 2 17
5 13 3 -3 4 -12 1 -19z m358 13 c-15 -13 -62 -26 -50 -13 6 5 19 12 30 15 11
3 22 5 25 6 2 0 0 -3 -5 -8z m-139 -16 c26 11 74 14 74 5 0 -18 -144 -28 -154
-11 -3 4 6 6 19 3 17 -3 25 0 25 9 0 12 2 12 9 0 6 -9 15 -11 27 -6z m415 -69
c5 3 9 0 9 -6 0 -15 -23 -7 -26 8 -1 7 0 8 3 2 2 -5 9 -8 14 -4z"/>
<path d="M3880 1770 c0 -6 7 -10 15 -10 8 0 15 2 15 4 0 2 -7 6 -15 10 -8 3
-15 1 -15 -4z"/>
<path d="M2896 1453 c-18 -36 -6 -64 20 -47 10 5 18 17 20 25 1 7 3 20 5 28 7
29 -29 23 -45 -6z"/>
<path d="M2945 1400 c-37 -6 -48 -40 -13 -40 30 0 51 14 46 31 -2 10 -12 13
-33 9z"/>
<path d="M1507 1264 c-19 -19 12 -68 60 -92 36 -19 39 15 3 44 -16 14 -29 30
-27 37 2 13 -26 21 -36 11z"/>
<path d="M260 1089 c0 -5 5 -7 10 -4 6 3 10 8 10 11 0 2 -4 4 -10 4 -5 0 -10
-5 -10 -11z"/>
</g>
</svg>
